<svg xmlns="http://www.w3.org/2000/svg" xmlns:xlink="http://www.w3.org/1999/xlink" width="500" zoomAndPan="magnify" viewBox="0 0 375 374.999991" height="500" preserveAspectRatio="xMidYMid meet" version="1.0"><defs><g/></defs><g fill="#efca83" fill-opacity="1"><g transform="translate(27.143866, 183.592284)"><g><path d="M 98.953125 -94.4375 C 103.128906 -94.4375 105.21875 -92.773438 105.21875 -89.453125 C 105.21875 -84.503906 101.398438 -78.953125 93.765625 -72.796875 C 86.484375 -67.003906 77.539062 -61.972656 66.9375 -57.703125 C 55.789062 -53.296875 45.519531 -50.867188 36.125 -50.421875 C 22.238281 -35.097656 15.296875 -23.078125 15.296875 -14.359375 C 15.296875 -7.441406 18.578125 -3.304688 25.140625 -1.953125 C 25.140625 -14.085938 29.320312 -25.078125 37.6875 -34.921875 C 42.851562 -40.984375 48.710938 -45.207031 55.265625 -47.59375 C 58.503906 -48.800781 61.910156 -49.40625 65.484375 -49.40625 C 69.054688 -49.40625 71.832031 -48.539062 73.8125 -46.8125 C 75.789062 -45.082031 76.78125 -42.867188 76.78125 -40.171875 C 76.78125 -37.472656 76.207031 -34.628906 75.0625 -31.640625 C 73.914062 -28.660156 72.304688 -25.6875 70.234375 -22.71875 C 68.171875 -19.75 65.664062 -16.878906 62.71875 -14.109375 C 59.78125 -11.347656 56.507812 -8.914062 52.90625 -6.8125 C 45.050781 -2.175781 36.851562 0.140625 28.3125 0.140625 L 27.703125 0.140625 C 27.523438 0.140625 27.320312 0.113281 27.09375 0.0625 C 27.363281 7.882812 28.691406 13.347656 31.078125 16.453125 C 31.253906 16.671875 31.34375 16.847656 31.34375 16.984375 L 31.34375 17.328125 C 31.34375 17.546875 31.140625 17.65625 30.734375 17.65625 C 29.023438 17.65625 27.429688 14.109375 25.953125 7.015625 C 25.503906 4.859375 25.234375 2.5 25.140625 -0.0625 C 18.535156 -0.96875 14.109375 -4.363281 11.859375 -10.25 C 11.140625 -12.175781 10.78125 -14.398438 10.78125 -16.921875 C 10.78125 -27.429688 15.566406 -38.84375 25.140625 -51.15625 C 17.585938 -52.863281 12.78125 -56.753906 10.71875 -62.828125 C 10.09375 -64.710938 9.78125 -66.734375 9.78125 -68.890625 C 9.78125 -71.046875 10.363281 -73.300781 11.53125 -75.65625 C 12.695312 -78.019531 14.320312 -80.3125 16.40625 -82.53125 C 18.5 -84.757812 20.992188 -86.863281 23.890625 -88.84375 C 26.796875 -90.820312 29.976562 -92.550781 33.4375 -94.03125 C 40.976562 -97.269531 48.660156 -98.890625 56.484375 -98.890625 C 60.128906 -98.890625 61.953125 -98.503906 61.953125 -97.734375 C 61.953125 -97.378906 61.65625 -97.203125 61.0625 -97.203125 L 56.15625 -97.46875 C 46.664062 -97.46875 37.179688 -94.273438 27.703125 -87.890625 C 21.585938 -83.804688 17.25 -79.203125 14.6875 -74.078125 C 13.34375 -71.429688 12.671875 -69.0625 12.671875 -66.96875 C 12.671875 -64.875 12.972656 -63.140625 13.578125 -61.765625 C 14.191406 -60.398438 15.054688 -59.132812 16.171875 -57.96875 C 18.597656 -55.445312 21.992188 -53.695312 26.359375 -52.71875 C 35.796875 -64.394531 47.234375 -74.1875 60.671875 -82.09375 C 74.691406 -90.320312 87.453125 -94.4375 98.953125 -94.4375 Z M 103.609375 -89.25 C 103.609375 -91.625 101.851562 -92.8125 98.34375 -92.8125 C 91.875 -92.8125 82.59375 -88.65625 70.5 -80.34375 C 58.726562 -72.34375 47.832031 -62.972656 37.8125 -52.234375 C 50.257812 -53.585938 64.328125 -58.691406 80.015625 -67.546875 C 89.316406 -72.796875 96.125 -77.894531 100.4375 -82.84375 C 102.550781 -85.269531 103.609375 -87.40625 103.609375 -89.25 Z M 27.09375 -1.6875 C 27.40625 -1.644531 27.722656 -1.625 28.046875 -1.625 L 29.046875 -1.625 C 34.753906 -1.625 41.023438 -4.179688 47.859375 -9.296875 C 53.921875 -13.878906 59.242188 -19.5 63.828125 -26.15625 C 68.328125 -32.71875 70.578125 -38.109375 70.578125 -42.328125 C 70.578125 -44.210938 70.082031 -45.5625 69.09375 -46.375 C 68.101562 -47.1875 66.425781 -47.59375 64.0625 -47.59375 C 61.707031 -47.59375 59.113281 -47.050781 56.28125 -45.96875 C 53.445312 -44.894531 50.648438 -43.367188 47.890625 -41.390625 C 45.128906 -39.410156 42.488281 -37.023438 39.96875 -34.234375 C 37.457031 -31.453125 35.234375 -28.351562 33.296875 -24.9375 C 29.160156 -17.570312 27.09375 -9.84375 27.09375 -1.75 Z M 27.09375 -1.6875 "/></g></g></g><g fill="#efca83" fill-opacity="1"><g transform="translate(105.119498, 173.484013)"><g><path d="M 13.65625 0.5 C 12.28125 0.5 10.894531 0.25 9.5 -0.25 C 8.101562 -0.75 6.820312 -1.503906 5.65625 -2.515625 C 4.488281 -3.535156 3.550781 -4.8125 2.84375 -6.34375 C 2.144531 -7.882812 1.796875 -9.6875 1.796875 -11.75 C 1.796875 -14.476562 2.40625 -16.859375 3.625 -18.890625 C 4.84375 -20.929688 6.453125 -22.515625 8.453125 -23.640625 C 10.453125 -24.773438 12.617188 -25.34375 14.953125 -25.34375 C 17.046875 -25.34375 18.832031 -24.9375 20.3125 -24.125 C 21.800781 -23.3125 22.953125 -22.238281 23.765625 -20.90625 C 24.585938 -19.570312 25.015625 -18.101562 25.046875 -16.5 L 5.5 -16.5 C 5.394531 -15.769531 5.34375 -15.003906 5.34375 -14.203125 C 5.34375 -11.929688 5.785156 -9.921875 6.671875 -8.171875 C 7.554688 -6.421875 8.804688 -5.0625 10.421875 -4.09375 C 12.035156 -3.132812 13.925781 -2.65625 16.09375 -2.65625 C 18.03125 -2.65625 19.710938 -3.050781 21.140625 -3.84375 C 22.578125 -4.644531 23.863281 -5.695312 25 -7 L 25.453125 -6.546875 C 24.617188 -5.378906 23.617188 -4.253906 22.453125 -3.171875 C 21.285156 -2.085938 19.972656 -1.203125 18.515625 -0.515625 C 17.066406 0.160156 15.445312 0.5 13.65625 0.5 Z M 5.65625 -17.15625 L 21.046875 -17.15625 C 20.878906 -18.28125 20.46875 -19.398438 19.8125 -20.515625 C 19.164062 -21.640625 18.300781 -22.578125 17.21875 -23.328125 C 16.132812 -24.078125 14.828125 -24.453125 13.296875 -24.453125 C 11.160156 -24.484375 9.453125 -23.796875 8.171875 -22.390625 C 6.890625 -20.992188 6.050781 -19.25 5.65625 -17.15625 Z M 5.65625 -17.15625 "/></g></g></g><g fill="#efca83" fill-opacity="1"><g transform="translate(131.965345, 173.484013)"><g><path d="M 1.90625 0 L 1.90625 -0.65625 C 2.664062 -0.882812 3.1875 -1.378906 3.46875 -2.140625 C 3.757812 -2.910156 3.90625 -4.3125 3.90625 -6.34375 L 3.90625 -32.84375 C 3.90625 -34.007812 3.828125 -34.882812 3.671875 -35.46875 C 3.523438 -36.050781 3.304688 -36.476562 3.015625 -36.75 C 2.734375 -37.019531 2.363281 -37.253906 1.90625 -37.453125 L 1.90625 -38 L 7.34375 -40.40625 L 7.796875 -40.046875 L 7.796875 -6.34375 C 7.796875 -4.3125 7.9375 -2.910156 8.21875 -2.140625 C 8.507812 -1.378906 9.035156 -0.882812 9.796875 -0.65625 L 9.796875 0 Z M 1.90625 0 "/></g></g></g><g fill="#efca83" fill-opacity="1"><g transform="translate(143.813515, 173.484013)"><g><path d="M 13.65625 0.5 C 12.28125 0.5 10.894531 0.25 9.5 -0.25 C 8.101562 -0.75 6.820312 -1.503906 5.65625 -2.515625 C 4.488281 -3.535156 3.550781 -4.8125 2.84375 -6.34375 C 2.144531 -7.882812 1.796875 -9.6875 1.796875 -11.75 C 1.796875 -14.476562 2.40625 -16.859375 3.625 -18.890625 C 4.84375 -20.929688 6.453125 -22.515625 8.453125 -23.640625 C 10.453125 -24.773438 12.617188 -25.34375 14.953125 -25.34375 C 17.046875 -25.34375 18.832031 -24.9375 20.3125 -24.125 C 21.800781 -23.3125 22.953125 -22.238281 23.765625 -20.90625 C 24.585938 -19.570312 25.015625 -18.101562 25.046875 -16.5 L 5.5 -16.5 C 5.394531 -15.769531 5.34375 -15.003906 5.34375 -14.203125 C 5.34375 -11.929688 5.785156 -9.921875 6.671875 -8.171875 C 7.554688 -6.421875 8.804688 -5.0625 10.421875 -4.09375 C 12.035156 -3.132812 13.925781 -2.65625 16.09375 -2.65625 C 18.03125 -2.65625 19.710938 -3.050781 21.140625 -3.84375 C 22.578125 -4.644531 23.863281 -5.695312 25 -7 L 25.453125 -6.546875 C 24.617188 -5.378906 23.617188 -4.253906 22.453125 -3.171875 C 21.285156 -2.085938 19.972656 -1.203125 18.515625 -0.515625 C 17.066406 0.160156 15.445312 0.5 13.65625 0.5 Z M 5.65625 -17.15625 L 21.046875 -17.15625 C 20.878906 -18.28125 20.46875 -19.398438 19.8125 -20.515625 C 19.164062 -21.640625 18.300781 -22.578125 17.21875 -23.328125 C 16.132812 -24.078125 14.828125 -24.453125 13.296875 -24.453125 C 11.160156 -24.484375 9.453125 -23.796875 8.171875 -22.390625 C 6.890625 -20.992188 6.050781 -19.25 5.65625 -17.15625 Z M 5.65625 -17.15625 "/></g></g></g><g fill="#efca83" fill-opacity="1"><g transform="translate(170.659361, 173.484013)"><g><path d="M 14.65625 0.453125 C 12.78125 0.453125 11.035156 0.078125 9.421875 -0.671875 C 7.804688 -1.421875 6.550781 -2.28125 5.65625 -3.25 L 4 0 L 3.5 0 L 3.5 -32.84375 C 3.5 -34.007812 3.421875 -34.882812 3.265625 -35.46875 C 3.117188 -36.050781 2.90625 -36.476562 2.625 -36.75 C 2.34375 -37.019531 1.96875 -37.253906 1.5 -37.453125 L 1.5 -38 L 6.953125 -40.40625 L 7.40625 -40.046875 L 7.40625 -21.953125 C 8.738281 -22.847656 10.195312 -23.632812 11.78125 -24.3125 C 13.363281 -25 15.019531 -25.34375 16.75 -25.34375 C 18.882812 -25.34375 20.765625 -24.816406 22.390625 -23.765625 C 24.023438 -22.722656 25.3125 -21.285156 26.25 -19.453125 C 27.1875 -17.617188 27.65625 -15.519531 27.65625 -13.15625 C 27.65625 -10.851562 27.15625 -8.664062 26.15625 -6.59375 C 25.15625 -4.53125 23.6875 -2.847656 21.75 -1.546875 C 19.8125 -0.242188 17.445312 0.421875 14.65625 0.453125 Z M 7.40625 -8.453125 C 7.40625 -7.253906 7.820312 -6.046875 8.65625 -4.828125 C 9.488281 -3.609375 10.578125 -2.585938 11.921875 -1.765625 C 13.273438 -0.953125 14.71875 -0.546875 16.25 -0.546875 C 18.851562 -0.546875 20.785156 -1.4375 22.046875 -3.21875 C 23.316406 -5.007812 23.953125 -7.351562 23.953125 -10.25 C 23.953125 -11.644531 23.785156 -13.117188 23.453125 -14.671875 C 23.117188 -16.222656 22.578125 -17.679688 21.828125 -19.046875 C 21.078125 -20.410156 20.09375 -21.523438 18.875 -22.390625 C 17.65625 -23.265625 16.164062 -23.703125 14.40625 -23.703125 C 13.101562 -23.703125 11.867188 -23.457031 10.703125 -22.96875 C 9.535156 -22.488281 8.4375 -21.898438 7.40625 -21.203125 Z M 7.40625 -8.453125 "/></g></g></g><g fill="#efca83" fill-opacity="1"><g transform="translate(200.45475, 173.484013)"><g><path d="M 1.59375 0 L 1.59375 -0.65625 C 2.363281 -0.882812 2.890625 -1.378906 3.171875 -2.140625 C 3.453125 -2.910156 3.59375 -4.3125 3.59375 -6.34375 L 3.59375 -17.84375 C 3.59375 -19.007812 3.519531 -19.882812 3.375 -20.46875 C 3.226562 -21.050781 3.007812 -21.476562 2.71875 -21.75 C 2.4375 -22.019531 2.0625 -22.253906 1.59375 -22.453125 L 1.59375 -23 L 7.046875 -25.40625 L 7.5 -25.046875 L 7.5 -18.796875 C 7.894531 -19.765625 8.414062 -20.664062 9.0625 -21.5 C 9.71875 -22.332031 10.414062 -23.015625 11.15625 -23.546875 C 11.914062 -24.117188 12.753906 -24.5625 13.671875 -24.875 C 14.585938 -25.1875 15.644531 -25.34375 16.84375 -25.34375 C 17.84375 -25.34375 18.632812 -25.226562 19.21875 -25 C 19.800781 -24.769531 20.09375 -24.4375 20.09375 -24 C 20.09375 -23.46875 19.832031 -22.859375 19.3125 -22.171875 C 18.800781 -21.492188 18.097656 -21.15625 17.203125 -21.15625 C 16.535156 -21.15625 15.691406 -21.28125 14.671875 -21.53125 C 13.660156 -21.78125 12.421875 -22.117188 10.953125 -22.546875 C 10.484375 -22.210938 9.988281 -21.703125 9.46875 -21.015625 C 8.957031 -20.335938 8.523438 -19.582031 8.171875 -18.75 C 7.828125 -17.914062 7.617188 -17.097656 7.546875 -16.296875 L 7.5 -16.296875 L 7.5 -6.34375 C 7.5 -4.3125 7.640625 -2.910156 7.921875 -2.140625 C 8.203125 -1.378906 8.726562 -0.882812 9.5 -0.65625 L 9.5 0 Z M 1.59375 0 "/></g></g></g><g fill="#efca83" fill-opacity="1"><g transform="translate(221.451499, 173.484013)"><g><path d="M 20.953125 0 C 19.953125 0 19.453125 -0.5 19.453125 -1.5 L 19.453125 -10.5 C 18.953125 -8.46875 18.164062 -6.617188 17.09375 -4.953125 C 16.03125 -3.285156 14.789062 -1.957031 13.375 -0.96875 C 11.957031 0.0078125 10.414062 0.5 8.75 0.5 C 7.519531 0.5 6.367188 0.25 5.296875 -0.25 C 4.234375 -0.75 3.375 -1.484375 2.71875 -2.453125 C 2.070312 -3.421875 1.75 -4.617188 1.75 -6.046875 C 1.75 -7.785156 2.265625 -9.203125 3.296875 -10.296875 C 4.328125 -11.398438 5.703125 -12.300781 7.421875 -13 C 9.140625 -13.695312 10.984375 -14.3125 12.953125 -14.84375 L 19.453125 -16.59375 C 19.316406 -19.03125 18.648438 -20.820312 17.453125 -21.96875 C 16.253906 -23.125 14.585938 -23.703125 12.453125 -23.703125 C 10.953125 -23.703125 9.492188 -23.34375 8.078125 -22.625 C 6.660156 -21.90625 5.316406 -20.78125 4.046875 -19.25 L 3.59375 -19.65625 C 5.03125 -21.414062 6.65625 -22.800781 8.46875 -23.8125 C 10.289062 -24.832031 12.285156 -25.34375 14.453125 -25.34375 C 17.484375 -25.34375 19.710938 -24.550781 21.140625 -22.96875 C 22.578125 -21.382812 23.296875 -19.175781 23.296875 -16.34375 L 23.296875 -6.34375 C 23.296875 -4.3125 23.4375 -2.910156 23.71875 -2.140625 C 24.007812 -1.378906 24.535156 -0.882812 25.296875 -0.65625 L 25.296875 0 Z M 5.5 -7.453125 C 5.5 -5.816406 5.988281 -4.570312 6.96875 -3.71875 C 7.957031 -2.875 9.164062 -2.453125 10.59375 -2.453125 C 11.925781 -2.453125 13.132812 -2.828125 14.21875 -3.578125 C 15.300781 -4.328125 16.226562 -5.300781 17 -6.5 C 17.769531 -7.695312 18.367188 -8.992188 18.796875 -10.390625 C 19.234375 -11.796875 19.453125 -13.148438 19.453125 -14.453125 L 19.453125 -15.953125 L 13.15625 -14.25 C 11.914062 -13.914062 10.703125 -13.472656 9.515625 -12.921875 C 8.335938 -12.367188 7.375 -11.660156 6.625 -10.796875 C 5.875 -9.929688 5.5 -8.816406 5.5 -7.453125 Z M 5.5 -7.453125 "/></g></g></g><g fill="#efca83" fill-opacity="1"><g transform="translate(247.947397, 173.484013)"><g><path d="M 9.453125 0.5 C 7.878906 0.5 6.644531 -0.0390625 5.75 -1.125 C 4.851562 -2.207031 4.40625 -4.050781 4.40625 -6.65625 L 4.40625 -24.296875 L 1.203125 -24.296875 L 1.203125 -25 L 7.59375 -31.15625 L 8.296875 -31.15625 L 8.296875 -25 L 15.90625 -25 L 15.65625 -24.296875 L 8.296875 -24.296875 L 8.296875 -6.65625 C 8.296875 -4.945312 8.617188 -3.734375 9.265625 -3.015625 C 9.921875 -2.304688 10.78125 -1.953125 11.84375 -1.953125 C 12.550781 -1.953125 13.320312 -2.140625 14.15625 -2.515625 C 14.988281 -2.898438 15.820312 -3.578125 16.65625 -4.546875 L 17.09375 -4.09375 C 16.03125 -2.863281 14.859375 -1.789062 13.578125 -0.875 C 12.296875 0.0390625 10.921875 0.5 9.453125 0.5 Z M 9.453125 0.5 "/></g></g></g><g fill="#efca83" fill-opacity="1"><g transform="translate(265.14473, 173.484013)"><g><path d="M 1.59375 0 L 1.59375 -0.65625 C 2.363281 -0.882812 2.890625 -1.378906 3.171875 -2.140625 C 3.453125 -2.910156 3.59375 -4.3125 3.59375 -6.34375 L 3.59375 -17.84375 C 3.59375 -19.007812 3.523438 -19.882812 3.390625 -20.46875 C 3.265625 -21.050781 3.050781 -21.476562 2.75 -21.75 C 2.445312 -22.019531 2.0625 -22.253906 1.59375 -22.453125 L 1.59375 -23 L 7.09375 -25.40625 L 7.5 -25.046875 L 7.5 -6.34375 C 7.5 -4.3125 7.648438 -2.910156 7.953125 -2.140625 C 8.253906 -1.378906 8.769531 -0.882812 9.5 -0.65625 L 9.5 0 Z M 2.5 -31.203125 C 2.5 -32.003906 2.765625 -32.671875 3.296875 -33.203125 C 3.828125 -33.734375 4.476562 -34 5.25 -34 C 6.050781 -34 6.707031 -33.734375 7.21875 -33.203125 C 7.738281 -32.671875 8 -32.003906 8 -31.203125 C 8 -30.460938 7.734375 -29.816406 7.203125 -29.265625 C 6.671875 -28.722656 6.019531 -28.453125 5.25 -28.453125 C 4.476562 -28.453125 3.828125 -28.722656 3.296875 -29.265625 C 2.765625 -29.816406 2.5 -30.460938 2.5 -31.203125 Z M 2.5 -31.203125 "/></g></g></g><g fill="#efca83" fill-opacity="1"><g transform="translate(276.39299, 173.484013)"><g><path d="M 14.90625 0.5 C 13.300781 0.5 11.722656 0.25 10.171875 -0.25 C 8.617188 -0.75 7.207031 -1.515625 5.9375 -2.546875 C 4.675781 -3.578125 3.671875 -4.894531 2.921875 -6.5 C 2.171875 -8.101562 1.796875 -9.988281 1.796875 -12.15625 C 1.796875 -14.75 2.410156 -17.035156 3.640625 -19.015625 C 4.878906 -21.003906 6.5 -22.554688 8.5 -23.671875 C 10.5 -24.785156 12.632812 -25.34375 14.90625 -25.34375 C 16.46875 -25.34375 18.015625 -25.101562 19.546875 -24.625 C 21.078125 -24.144531 22.476562 -23.382812 23.75 -22.34375 C 25.019531 -21.3125 26.035156 -19.992188 26.796875 -18.390625 C 27.566406 -16.796875 27.953125 -14.882812 27.953125 -12.65625 C 27.953125 -10.519531 27.554688 -8.632812 26.765625 -7 C 25.984375 -5.363281 24.941406 -3.988281 23.640625 -2.875 C 22.347656 -1.757812 20.929688 -0.914062 19.390625 -0.34375 C 17.859375 0.21875 16.363281 0.5 14.90625 0.5 Z M 5.65625 -15 C 5.65625 -13.394531 5.90625 -11.75 6.40625 -10.0625 C 6.90625 -8.382812 7.617188 -6.828125 8.546875 -5.390625 C 9.484375 -3.960938 10.609375 -2.796875 11.921875 -1.890625 C 13.242188 -0.992188 14.738281 -0.546875 16.40625 -0.546875 C 18.195312 -0.546875 19.660156 -0.96875 20.796875 -1.8125 C 21.929688 -2.664062 22.773438 -3.789062 23.328125 -5.1875 C 23.878906 -6.59375 24.15625 -8.097656 24.15625 -9.703125 C 24.15625 -11.296875 23.882812 -12.96875 23.34375 -14.71875 C 22.8125 -16.46875 22.050781 -18.09375 21.0625 -19.59375 C 20.082031 -21.09375 18.910156 -22.289062 17.546875 -23.1875 C 16.179688 -24.09375 14.679688 -24.5 13.046875 -24.40625 C 11.347656 -24.332031 9.945312 -23.863281 8.84375 -23 C 7.75 -22.132812 6.941406 -21 6.421875 -19.59375 C 5.910156 -18.195312 5.65625 -16.664062 5.65625 -15 Z M 5.65625 -15 "/></g></g></g><g fill="#efca83" fill-opacity="1"><g transform="translate(306.488329, 173.484013)"><g><path d="M 1.59375 0 L 1.59375 -0.65625 C 2.363281 -0.882812 2.890625 -1.378906 3.171875 -2.140625 C 3.453125 -2.910156 3.59375 -4.3125 3.59375 -6.34375 L 3.59375 -17.84375 C 3.59375 -19.007812 3.523438 -19.882812 3.390625 -20.46875 C 3.265625 -21.050781 3.050781 -21.476562 2.75 -21.75 C 2.445312 -22.019531 2.0625 -22.253906 1.59375 -22.453125 L 1.59375 -23 L 7.09375 -25.40625 L 7.5 -25.046875 L 7.5 -20.75 C 8.96875 -21.914062 10.617188 -22.972656 12.453125 -23.921875 C 14.285156 -24.867188 16.164062 -25.34375 18.09375 -25.34375 C 20.5625 -25.34375 22.492188 -24.625 23.890625 -23.1875 C 25.296875 -21.757812 26 -19.582031 26 -16.65625 L 26 -6.34375 C 26 -4.3125 26.140625 -2.910156 26.421875 -2.140625 C 26.703125 -1.378906 27.226562 -0.882812 28 -0.65625 L 28 0 L 20.09375 0 L 20.09375 -0.65625 C 20.863281 -0.882812 21.390625 -1.378906 21.671875 -2.140625 C 21.953125 -2.910156 22.09375 -4.3125 22.09375 -6.34375 L 22.09375 -15.65625 C 22.09375 -18.25 21.539062 -20.238281 20.4375 -21.625 C 19.34375 -23.007812 17.695312 -23.703125 15.5 -23.703125 C 14.132812 -23.703125 12.773438 -23.34375 11.421875 -22.625 C 10.078125 -21.90625 8.769531 -21.015625 7.5 -19.953125 L 7.5 -6.34375 C 7.5 -4.3125 7.648438 -2.910156 7.953125 -2.140625 C 8.253906 -1.378906 8.769531 -0.882812 9.5 -0.65625 L 9.5 0 Z M 1.59375 0 "/></g></g></g><g fill="#efca83" fill-opacity="1"><g transform="translate(108.619195, 198.328288)"><g><path d="M 11.828125 -5.59375 C 11.828125 -9.609375 8.984375 -11.71875 6.28125 -11.71875 C 4.140625 -11.71875 0.640625 -10.359375 0.640625 -5.578125 C 0.640625 -1.9375 3.359375 0.296875 6.28125 0.296875 C 9.109375 0.296875 11.828125 -1.625 11.828125 -5.59375 Z M 1.90625 -5.953125 C 1.90625 -8.6875 3.234375 -11.4375 6.15625 -11.4375 C 9.359375 -11.4375 10.5625 -8.265625 10.5625 -5.203125 C 10.5625 -2.578125 9.421875 0.015625 6.3125 0.015625 C 3.03125 0.015625 1.90625 -3.125 1.90625 -5.953125 Z M 1.90625 -5.953125 "/></g></g></g><g fill="#efca83" fill-opacity="1"><g transform="translate(128.648184, 198.328288)"><g><path d="M 2.5 0 C 2.421875 -0.859375 2.34375 -3.296875 2.34375 -5.875 C 2.734375 -5.890625 3.15625 -5.890625 3.546875 -5.890625 C 4.421875 -5.890625 5.265625 -5.859375 6.125 -5.8125 L 6.25 -6.359375 C 5.25 -6.25 4.21875 -6.203125 3.21875 -6.203125 C 2.90625 -6.203125 2.625 -6.203125 2.34375 -6.21875 C 2.34375 -8.015625 2.359375 -9.78125 2.40625 -11.109375 C 2.828125 -11.125 3.265625 -11.125 3.65625 -11.125 C 4.96875 -11.125 6.125 -11.046875 7.328125 -10.75 L 7.28125 -11.4375 C 6.21875 -11.40625 5.25 -11.40625 4.046875 -11.40625 C 3.234375 -11.40625 2.3125 -11.40625 1.21875 -11.40625 C 1.3125 -9.8125 1.359375 -7.359375 1.359375 -5.125 C 1.359375 -2.859375 1.3125 -0.796875 1.21875 0 Z M 2.5 0 "/></g></g></g><g fill="#efca83" fill-opacity="1"><g transform="translate(143.734367, 198.328288)"><g/></g></g><g fill="#efca83" fill-opacity="1"><g transform="translate(156.261157, 198.328288)"><g><path d="M 0.40625 -10.75 C 0.890625 -11.015625 1.953125 -11.125 3.09375 -11.125 C 3.125 -8.859375 3.15625 -7.0625 3.15625 -5.265625 C 3.15625 -3.59375 3.140625 -1.953125 3.078125 0 L 4.15625 0 C 4.078125 -1.90625 4.046875 -3.515625 4.046875 -5.15625 C 4.046875 -6.984375 4.078125 -8.828125 4.125 -11.125 C 5.296875 -11.125 6.5625 -10.9375 7.0625 -10.75 L 6.984375 -11.4375 C 6.4375 -11.40625 5.078125 -11.375 3.71875 -11.375 C 2.375 -11.375 1.03125 -11.40625 0.5 -11.46875 Z M 0.40625 -10.75 "/></g></g></g><g fill="#efca83" fill-opacity="1"><g transform="translate(171.235362, 198.328288)"><g><path d="M 8.65625 -11.40625 C 8.703125 -9.53125 8.71875 -7.75 8.71875 -6.21875 C 8.09375 -6.203125 7.1875 -6.1875 6.21875 -6.1875 C 4.625 -6.1875 2.90625 -6.21875 2.1875 -6.265625 C 2.1875 -7.765625 2.234375 -9.53125 2.28125 -11.40625 L 1.234375 -11.40625 C 1.265625 -9.09375 1.296875 -7.21875 1.296875 -5.375 C 1.296875 -3.65625 1.28125 -1.984375 1.21875 0 L 2.296875 0 C 2.203125 -1.8125 2.1875 -3.21875 2.1875 -4.703125 C 2.1875 -5.09375 2.1875 -5.46875 2.1875 -5.890625 C 2.9375 -5.921875 4.5 -5.9375 5.96875 -5.9375 C 7.046875 -5.9375 8.0625 -5.921875 8.71875 -5.90625 C 8.71875 -3.921875 8.703125 -2.28125 8.640625 0 L 9.734375 0 C 9.640625 -2 9.59375 -3.71875 9.59375 -5.4375 C 9.59375 -7.265625 9.640625 -9.125 9.71875 -11.40625 Z M 8.65625 -11.40625 "/></g></g></g><g fill="#efca83" fill-opacity="1"><g transform="translate(189.744725, 198.328288)"><g><path d="M 2.3125 -5.875 C 2.71875 -5.890625 3.140625 -5.890625 3.53125 -5.890625 C 4.40625 -5.890625 5.265625 -5.859375 6.125 -5.8125 L 6.25 -6.359375 C 5.234375 -6.25 4.203125 -6.203125 3.203125 -6.203125 C 2.90625 -6.203125 2.609375 -6.203125 2.3125 -6.21875 C 2.3125 -8 2.359375 -9.765625 2.40625 -11.109375 C 2.921875 -11.125 3.421875 -11.125 3.90625 -11.125 C 5.109375 -11.125 6.203125 -11.0625 7.328125 -10.78125 L 7.28125 -11.4375 C 6.40625 -11.421875 5.578125 -11.40625 1.21875 -11.40625 C 1.3125 -9.8125 1.359375 -7.359375 1.359375 -5.125 C 1.359375 -2.859375 1.3125 -0.796875 1.21875 0 C 5.65625 0 6.515625 0.015625 7.390625 0.03125 L 7.5625 -0.59375 C 6.46875 -0.34375 5.328125 -0.265625 4.109375 -0.265625 C 3.546875 -0.265625 2.984375 -0.28125 2.40625 -0.296875 C 2.359375 -1.359375 2.3125 -2.96875 2.3125 -4.75 C 2.3125 -5.125 2.3125 -5.484375 2.3125 -5.875 Z M 2.3125 -5.875 "/></g></g></g><g fill="#efca83" fill-opacity="1"><g transform="translate(121.874996, 272.913263)"><g><path d="M 50.546875 -13.40625 C 44.171875 -13.40625 38.242188 -14.257812 32.765625 -15.96875 C 26.472656 -10.757812 21.753906 -7.144531 18.609375 -5.125 C 12.765625 -1.476562 6.804688 0.34375 0.734375 0.34375 C -6.179688 0.34375 -10.648438 -1.65625 -12.671875 -5.65625 C -13.253906 -6.875 -13.546875 -8.066406 -13.546875 -9.234375 C -13.546875 -10.398438 -13.34375 -11.34375 -12.9375 -12.0625 C -12.53125 -12.78125 -12.035156 -13.34375 -11.453125 -13.75 C -10.242188 -14.601562 -8.832031 -15.03125 -7.21875 -15.03125 C -4.96875 -15.03125 -3.84375 -14.019531 -3.84375 -12 C -3.84375 -11.101562 -4.210938 -10.328125 -4.953125 -9.671875 C -5.691406 -9.023438 -6.703125 -8.703125 -7.984375 -8.703125 C -9.265625 -8.703125 -10.222656 -8.925781 -10.859375 -9.375 L -10.859375 -8.890625 C -10.859375 -3.953125 -6.8125 -1.484375 1.28125 -1.484375 C 6.894531 -1.484375 13.253906 -3.953125 20.359375 -8.890625 L 30.40625 -16.78125 C 24.019531 -19.164062 18.914062 -22.535156 15.09375 -26.890625 C 11.414062 -31.023438 9.441406 -35.585938 9.171875 -40.578125 C 8.898438 -45.472656 10.515625 -49.648438 14.015625 -53.109375 C 17.703125 -56.753906 22.691406 -58.578125 28.984375 -58.578125 C 37.742188 -58.578125 45.113281 -54.820312 51.09375 -47.3125 C 52.894531 -45.019531 54.421875 -42.570312 55.671875 -39.96875 C 70.097656 -53.8125 79.535156 -62.710938 83.984375 -66.671875 L 95.046875 -76.234375 C 109.960938 -88.503906 120.945312 -94.640625 128 -94.640625 C 128.8125 -94.640625 129.21875 -94.503906 129.21875 -94.234375 C 129.21875 -93.921875 128.847656 -93.628906 128.109375 -93.359375 C 127.367188 -93.085938 126.546875 -92.5 125.640625 -91.59375 C 124.742188 -90.695312 123.441406 -89.195312 121.734375 -87.09375 L 115.125 -78.65625 L 69.5 -18 C 82.03125 -21.726562 91.800781 -28.398438 98.8125 -38.015625 C 101.0625 -41.066406 102.566406 -43.628906 103.328125 -45.703125 C 104.367188 -48.441406 105 -49.8125 105.21875 -49.8125 C 105.351562 -49.8125 105.566406 -49.617188 105.859375 -49.234375 C 106.148438 -48.859375 106.257812 -48.050781 106.1875 -46.8125 C 106.125 -45.570312 105.800781 -44.109375 105.21875 -42.421875 C 104.632812 -40.742188 103.894531 -39.140625 103 -37.609375 C 101.507812 -35.046875 99.0625 -32.148438 95.65625 -28.921875 C 88.769531 -22.222656 79.332031 -17.640625 67.34375 -15.171875 L 55.8125 0.0625 L 51.5 -0.203125 C 50.0625 -0.296875 48.925781 -0.34375 48.09375 -0.34375 C 47.257812 -0.34375 46.550781 -0.296875 45.96875 -0.203125 L 44.078125 0.0625 L 54.0625 -12.265625 C 54.195312 -12.492188 54.332031 -12.707031 54.46875 -12.90625 C 54.601562 -13.113281 54.710938 -13.328125 54.796875 -13.546875 C 53.359375 -13.453125 51.941406 -13.40625 50.546875 -13.40625 Z M 56.625 -37.875 C 58.46875 -33.15625 59.390625 -29.109375 59.390625 -25.734375 C 59.390625 -22.367188 59.117188 -19.722656 58.578125 -17.796875 L 83.578125 -48.0625 C 100.078125 -67.25 110.300781 -78.941406 114.25 -83.140625 C 118.207031 -87.347656 121.128906 -90.328125 123.015625 -92.078125 L 118.5 -90.1875 C 112.4375 -87.539062 103.765625 -81.335938 92.484375 -71.578125 L 78.328125 -58.78125 Z M 32.015625 -18.125 C 40.773438 -25.945312 48.144531 -32.757812 54.125 -38.5625 C 50.394531 -47.050781 44.710938 -52.617188 37.078125 -55.265625 C 34.515625 -56.117188 32.007812 -56.546875 29.5625 -56.546875 C 27.113281 -56.546875 24.929688 -56.109375 23.015625 -55.234375 C 21.109375 -54.359375 19.4375 -53.203125 18 -51.765625 C 14.894531 -48.660156 13.34375 -44.976562 13.34375 -40.71875 C 13.34375 -33.207031 16.847656 -27.023438 23.859375 -22.171875 C 26.191406 -20.554688 28.910156 -19.207031 32.015625 -18.125 Z M 34.375 -17.390625 C 39.320312 -15.992188 44.847656 -15.296875 50.953125 -15.296875 C 52.523438 -15.296875 54.097656 -15.363281 55.671875 -15.5 C 56.710938 -18.15625 57.234375 -20.71875 57.234375 -23.1875 C 57.234375 -27.769531 56.488281 -32.148438 55 -36.328125 C 44.894531 -26.804688 38.019531 -20.492188 34.375 -17.390625 Z M 34.375 -17.390625 "/></g></g></g><g fill="#efca83" fill-opacity="1"><g transform="translate(224.069858, 275.399807)"><g><path d="M 1.59375 0 L 1.59375 -0.65625 C 2.363281 -0.882812 2.890625 -1.378906 3.171875 -2.140625 C 3.453125 -2.910156 3.59375 -4.3125 3.59375 -6.34375 L 3.59375 -17.84375 C 3.59375 -19.007812 3.519531 -19.882812 3.375 -20.46875 C 3.226562 -21.050781 3.007812 -21.476562 2.71875 -21.75 C 2.4375 -22.019531 2.0625 -22.253906 1.59375 -22.453125 L 1.59375 -23 L 7.046875 -25.40625 L 7.5 -25.046875 L 7.5 -18.796875 C 7.894531 -19.765625 8.414062 -20.664062 9.0625 -21.5 C 9.71875 -22.332031 10.414062 -23.015625 11.15625 -23.546875 C 11.914062 -24.117188 12.753906 -24.5625 13.671875 -24.875 C 14.585938 -25.1875 15.644531 -25.34375 16.84375 -25.34375 C 17.84375 -25.34375 18.632812 -25.226562 19.21875 -25 C 19.800781 -24.769531 20.09375 -24.4375 20.09375 -24 C 20.09375 -23.46875 19.832031 -22.859375 19.3125 -22.171875 C 18.800781 -21.492188 18.097656 -21.15625 17.203125 -21.15625 C 16.535156 -21.15625 15.691406 -21.28125 14.671875 -21.53125 C 13.660156 -21.78125 12.421875 -22.117188 10.953125 -22.546875 C 10.484375 -22.210938 9.988281 -21.703125 9.46875 -21.015625 C 8.957031 -20.335938 8.523438 -19.582031 8.171875 -18.75 C 7.828125 -17.914062 7.617188 -17.097656 7.546875 -16.296875 L 7.5 -16.296875 L 7.5 -6.34375 C 7.5 -4.3125 7.640625 -2.910156 7.921875 -2.140625 C 8.203125 -1.378906 8.726562 -0.882812 9.5 -0.65625 L 9.5 0 Z M 1.59375 0 "/></g></g></g><g fill="#efca83" fill-opacity="1"><g transform="translate(245.066607, 275.399807)"><g><path d="M 9.453125 0.5 C 7.878906 0.5 6.644531 -0.0390625 5.75 -1.125 C 4.851562 -2.207031 4.40625 -4.050781 4.40625 -6.65625 L 4.40625 -24.296875 L 1.203125 -24.296875 L 1.203125 -25 L 7.59375 -31.15625 L 8.296875 -31.15625 L 8.296875 -25 L 15.90625 -25 L 15.65625 -24.296875 L 8.296875 -24.296875 L 8.296875 -6.65625 C 8.296875 -4.945312 8.617188 -3.734375 9.265625 -3.015625 C 9.921875 -2.304688 10.78125 -1.953125 11.84375 -1.953125 C 12.550781 -1.953125 13.320312 -2.140625 14.15625 -2.515625 C 14.988281 -2.898438 15.820312 -3.578125 16.65625 -4.546875 L 17.09375 -4.09375 C 16.03125 -2.863281 14.859375 -1.789062 13.578125 -0.875 C 12.296875 0.0390625 10.921875 0.5 9.453125 0.5 Z M 9.453125 0.5 "/></g></g></g><g fill="#efca83" fill-opacity="1"><g transform="translate(262.26394, 275.399807)"><g><path d="M 11.296875 0.453125 C 9.296875 0.453125 7.488281 0.203125 5.875 -0.296875 C 4.257812 -0.796875 3.035156 -1.3125 2.203125 -1.84375 L 1.75 -7.90625 L 2.203125 -8 C 3.265625 -5.632812 4.660156 -3.773438 6.390625 -2.421875 C 8.128906 -1.078125 10.132812 -0.382812 12.40625 -0.34375 C 13.96875 -0.34375 15.253906 -0.769531 16.265625 -1.625 C 17.285156 -2.476562 17.796875 -3.601562 17.796875 -5 C 17.796875 -6.195312 17.453125 -7.160156 16.765625 -7.890625 C 16.085938 -8.628906 15.191406 -9.234375 14.078125 -9.703125 C 12.960938 -10.171875 11.753906 -10.601562 10.453125 -11 C 8.878906 -11.5 7.476562 -12.023438 6.25 -12.578125 C 5.019531 -13.128906 4.050781 -13.851562 3.34375 -14.75 C 2.644531 -15.644531 2.296875 -16.84375 2.296875 -18.34375 C 2.296875 -20.3125 3.085938 -21.96875 4.671875 -23.3125 C 6.253906 -24.664062 8.5 -25.34375 11.40625 -25.34375 C 13.03125 -25.34375 14.535156 -25.203125 15.921875 -24.921875 C 17.304688 -24.640625 18.382812 -24.332031 19.15625 -24 L 19.34375 -18.90625 L 18.84375 -18.796875 C 18.050781 -20.597656 16.90625 -22.03125 15.40625 -23.09375 C 13.90625 -24.164062 12.269531 -24.703125 10.5 -24.703125 C 8.800781 -24.703125 7.441406 -24.316406 6.421875 -23.546875 C 5.410156 -22.785156 4.90625 -21.769531 4.90625 -20.5 C 4.90625 -19.46875 5.226562 -18.597656 5.875 -17.890625 C 6.519531 -17.191406 7.382812 -16.601562 8.46875 -16.125 C 9.550781 -15.644531 10.742188 -15.1875 12.046875 -14.75 C 13.015625 -14.445312 13.988281 -14.117188 14.96875 -13.765625 C 15.957031 -13.421875 16.859375 -12.988281 17.671875 -12.46875 C 18.492188 -11.957031 19.160156 -11.289062 19.671875 -10.46875 C 20.191406 -9.65625 20.453125 -8.613281 20.453125 -7.34375 C 20.453125 -5.945312 20.109375 -4.65625 19.421875 -3.46875 C 18.742188 -2.289062 17.71875 -1.347656 16.34375 -0.640625 C 14.976562 0.0546875 13.296875 0.421875 11.296875 0.453125 Z M 11.296875 0.453125 "/></g></g></g><g fill="#efca83" fill-opacity="1"><g transform="translate(139.58355, 123.835069)"><g><path d="M 8.359375 -11.484375 L 7.578125 -11.40625 C 7.28125 -10.515625 5.546875 -7.421875 4.625 -5.90625 C 3.59375 -7.640625 2.15625 -10.265625 1.640625 -11.546875 L 0.25 -11.40625 C 1.40625 -9.796875 2.984375 -6.890625 3.84375 -5.125 C 3.84375 -4.84375 3.859375 -4.5625 3.859375 -4.234375 C 3.859375 -2.953125 3.78125 -1.3125 3.6875 0 L 4.921875 0 C 4.828125 -1.359375 4.75 -2.96875 4.75 -4.21875 C 4.75 -4.640625 4.765625 -5.03125 4.78125 -5.34375 C 5.96875 -7.6875 7.6875 -10.734375 8.359375 -11.484375 Z M 8.359375 -11.484375 "/></g></g></g><g fill="#efca83" fill-opacity="1"><g transform="translate(155.645502, 123.835069)"><g><path d="M 4.453125 -11.265625 C 3.109375 -7.5 0.609375 -1.15625 -0.109375 0.09375 L 0.65625 0 C 0.90625 -0.984375 1.6875 -3.046875 2.53125 -5.21875 C 3.15625 -5.25 4.09375 -5.265625 5.015625 -5.265625 C 5.65625 -5.265625 6.296875 -5.25 6.796875 -5.234375 C 7.5625 -3.0625 8.28125 -0.90625 8.625 0.109375 L 10.0625 0 C 8.78125 -2.703125 6.296875 -8.78125 5.40625 -11.59375 Z M 4.59375 -10.546875 C 5.0625 -9.828125 5.90625 -7.71875 6.671875 -5.546875 C 6.15625 -5.53125 5.515625 -5.515625 4.875 -5.515625 C 4.046875 -5.515625 3.21875 -5.53125 2.65625 -5.578125 C 3.34375 -7.375 4.0625 -9.1875 4.59375 -10.546875 Z M 4.59375 -10.546875 "/></g></g></g><g fill="#efca83" fill-opacity="1"><g transform="translate(173.355048, 123.835069)"><g><path d="M 5.421875 0 C 6.734375 -3.78125 8.90625 -9.796875 9.8125 -11.484375 L 8.96875 -11.40625 C 8.484375 -9.421875 6.125 -2.875 5.3125 -1.015625 C 3.9375 -4.21875 2.0625 -9.390625 1.421875 -11.546875 L 0.109375 -11.40625 C 1.453125 -8.546875 3.8125 -2.46875 4.65625 0.15625 Z M 5.421875 0 "/></g></g></g><g fill="#efca83" fill-opacity="1"><g transform="translate(190.648703, 123.835069)"><g><path d="M 1.75 0 C 1.625 -1.296875 1.578125 -3.859375 1.578125 -6.21875 C 1.578125 -7.8125 1.59375 -9.3125 1.625 -10.3125 C 3.890625 -7.078125 6.28125 -3.3125 8.421875 0.1875 L 9.53125 -0.09375 C 9.46875 -1.796875 9.453125 -3.875 9.453125 -5.828125 C 9.453125 -8.3125 9.484375 -10.5625 9.5625 -11.40625 L 8.96875 -11.40625 C 9.046875 -10.453125 9.0625 -8.578125 9.0625 -6.59375 C 9.0625 -4.609375 9.046875 -2.5 9.015625 -1.0625 C 6.59375 -4.390625 4.375 -8.015625 2.1875 -11.59375 L 1.15625 -11.234375 C 1.21875 -9.859375 1.234375 -7.65625 1.234375 -5.546875 C 1.234375 -3.171875 1.203125 -0.875 1.140625 0 Z M 1.75 0 "/></g></g></g><g fill="#efca83" fill-opacity="1"><g transform="translate(208.918118, 123.835069)"><g><path d="M 2.3125 -5.875 C 2.71875 -5.890625 3.140625 -5.890625 3.53125 -5.890625 C 4.40625 -5.890625 5.265625 -5.859375 6.125 -5.8125 L 6.25 -6.359375 C 5.234375 -6.25 4.203125 -6.203125 3.203125 -6.203125 C 2.90625 -6.203125 2.609375 -6.203125 2.3125 -6.21875 C 2.3125 -8 2.359375 -9.765625 2.40625 -11.109375 C 2.921875 -11.125 3.421875 -11.125 3.90625 -11.125 C 5.109375 -11.125 6.203125 -11.0625 7.328125 -10.78125 L 7.28125 -11.4375 C 6.40625 -11.421875 5.578125 -11.40625 1.21875 -11.40625 C 1.3125 -9.8125 1.359375 -7.359375 1.359375 -5.125 C 1.359375 -2.859375 1.3125 -0.796875 1.21875 0 C 5.65625 0 6.515625 0.015625 7.390625 0.03125 L 7.5625 -0.59375 C 6.46875 -0.34375 5.328125 -0.265625 4.109375 -0.265625 C 3.546875 -0.265625 2.984375 -0.28125 2.40625 -0.296875 C 2.359375 -1.359375 2.3125 -2.96875 2.3125 -4.75 C 2.3125 -5.125 2.3125 -5.484375 2.3125 -5.875 Z M 2.3125 -5.875 "/></g></g></g><g fill="#efca83" fill-opacity="1"><g transform="translate(224.468189, 123.835069)"><g><path d="M 8.65625 -11.40625 C 8.703125 -9.53125 8.71875 -7.75 8.71875 -6.21875 C 8.09375 -6.203125 7.1875 -6.1875 6.21875 -6.1875 C 4.625 -6.1875 2.90625 -6.21875 2.1875 -6.265625 C 2.1875 -7.765625 2.234375 -9.53125 2.28125 -11.40625 L 1.234375 -11.40625 C 1.265625 -9.09375 1.296875 -7.21875 1.296875 -5.375 C 1.296875 -3.65625 1.28125 -1.984375 1.21875 0 L 2.296875 0 C 2.203125 -1.8125 2.1875 -3.21875 2.1875 -4.703125 C 2.1875 -5.09375 2.1875 -5.46875 2.1875 -5.890625 C 2.9375 -5.921875 4.5 -5.9375 5.96875 -5.9375 C 7.046875 -5.9375 8.0625 -5.921875 8.71875 -5.90625 C 8.71875 -3.921875 8.703125 -2.28125 8.640625 0 L 9.734375 0 C 9.640625 -2 9.59375 -3.71875 9.59375 -5.4375 C 9.59375 -7.265625 9.640625 -9.125 9.71875 -11.40625 Z M 8.65625 -11.40625 "/></g></g></g></svg>