<svg xmlns="http://www.w3.org/2000/svg" xmlns:xlink="http://www.w3.org/1999/xlink" width="500" zoomAndPan="magnify" viewBox="0 0 375 187.499995" height="250" preserveAspectRatio="xMidYMid meet" version="1.0"><defs><g/></defs><g fill="#f3efeb" fill-opacity="1"><g transform="translate(55.411293, 94.986919)"><g><path d="M 77.453125 -73.90625 C 80.722656 -73.90625 82.359375 -72.609375 82.359375 -70.015625 C 82.359375 -66.140625 79.367188 -61.796875 73.390625 -56.984375 C 67.691406 -52.441406 60.691406 -48.5 52.390625 -45.15625 C 43.660156 -41.707031 35.625 -39.8125 28.28125 -39.46875 C 17.40625 -27.46875 11.96875 -18.054688 11.96875 -11.234375 C 11.96875 -5.816406 14.535156 -2.582031 19.671875 -1.53125 C 19.671875 -11.03125 22.941406 -19.628906 29.484375 -27.328125 C 33.535156 -32.078125 38.128906 -35.382812 43.265625 -37.25 C 45.796875 -38.195312 48.457031 -38.671875 51.25 -38.671875 C 54.050781 -38.671875 56.222656 -37.992188 57.765625 -36.640625 C 59.316406 -35.285156 60.09375 -33.550781 60.09375 -31.4375 C 60.09375 -29.332031 59.644531 -27.109375 58.75 -24.765625 C 57.851562 -22.429688 56.59375 -20.101562 54.96875 -17.78125 C 53.351562 -15.457031 51.394531 -13.210938 49.09375 -11.046875 C 46.789062 -8.890625 44.234375 -6.984375 41.421875 -5.328125 C 35.265625 -1.703125 28.84375 0.109375 22.15625 0.109375 L 21.6875 0.109375 C 21.539062 0.109375 21.378906 0.0859375 21.203125 0.046875 C 21.421875 6.171875 22.460938 10.445312 24.328125 12.875 C 24.460938 13.050781 24.53125 13.191406 24.53125 13.296875 L 24.53125 13.5625 C 24.53125 13.738281 24.375 13.828125 24.0625 13.828125 C 22.71875 13.828125 21.46875 11.046875 20.3125 5.484375 C 19.957031 3.796875 19.742188 1.953125 19.671875 -0.046875 C 14.503906 -0.753906 11.039062 -3.410156 9.28125 -8.015625 C 8.71875 -9.523438 8.4375 -11.265625 8.4375 -13.234375 C 8.4375 -21.472656 12.179688 -30.410156 19.671875 -40.046875 C 13.765625 -41.378906 10.003906 -44.421875 8.390625 -49.171875 C 7.898438 -50.648438 7.65625 -52.234375 7.65625 -53.921875 C 7.65625 -55.609375 8.109375 -57.375 9.015625 -59.21875 C 9.929688 -61.0625 11.207031 -62.851562 12.84375 -64.59375 C 14.476562 -66.34375 16.429688 -67.988281 18.703125 -69.53125 C 20.972656 -71.082031 23.460938 -72.4375 26.171875 -73.59375 C 32.078125 -76.125 38.085938 -77.390625 44.203125 -77.390625 C 47.054688 -77.390625 48.484375 -77.09375 48.484375 -76.5 C 48.484375 -76.21875 48.253906 -76.078125 47.796875 -76.078125 L 43.953125 -76.28125 C 36.523438 -76.28125 29.101562 -73.785156 21.6875 -68.796875 C 16.90625 -65.597656 13.507812 -61.992188 11.5 -57.984375 C 10.445312 -55.910156 9.921875 -54.054688 9.921875 -52.421875 C 9.921875 -50.785156 10.15625 -49.429688 10.625 -48.359375 C 11.101562 -47.285156 11.78125 -46.289062 12.65625 -45.375 C 14.5625 -43.40625 17.21875 -42.03125 20.625 -41.25 C 28.007812 -50.394531 36.960938 -58.066406 47.484375 -64.265625 C 58.453125 -70.691406 68.441406 -73.90625 77.453125 -73.90625 Z M 81.09375 -69.84375 C 81.09375 -71.707031 79.71875 -72.640625 76.96875 -72.640625 C 71.90625 -72.640625 64.644531 -69.390625 55.1875 -62.890625 C 45.96875 -56.628906 37.4375 -49.296875 29.59375 -40.890625 C 39.332031 -41.941406 50.34375 -45.929688 62.625 -52.859375 C 69.90625 -56.972656 75.234375 -60.96875 78.609375 -64.84375 C 80.265625 -66.738281 81.09375 -68.40625 81.09375 -69.84375 Z M 21.203125 -1.3125 C 21.453125 -1.28125 21.703125 -1.265625 21.953125 -1.265625 L 22.734375 -1.265625 C 27.203125 -1.265625 32.109375 -3.269531 37.453125 -7.28125 C 42.203125 -10.863281 46.375 -15.257812 49.96875 -20.46875 C 53.476562 -25.601562 55.234375 -29.820312 55.234375 -33.125 C 55.234375 -34.601562 54.847656 -35.660156 54.078125 -36.296875 C 53.304688 -36.929688 51.992188 -37.25 50.140625 -37.25 C 48.296875 -37.25 46.265625 -36.828125 44.046875 -35.984375 C 41.835938 -35.140625 39.648438 -33.941406 37.484375 -32.390625 C 35.316406 -30.847656 33.25 -28.984375 31.28125 -26.796875 C 29.3125 -24.617188 27.570312 -22.191406 26.0625 -19.515625 C 22.820312 -13.753906 21.203125 -7.707031 21.203125 -1.375 Z M 21.203125 -1.3125 "/></g></g></g><g fill="#f3efeb" fill-opacity="1"><g transform="translate(116.446577, 87.074666)"><g><path d="M 10.6875 0.390625 C 9.613281 0.390625 8.53125 0.195312 7.4375 -0.1875 C 6.34375 -0.582031 5.335938 -1.175781 4.421875 -1.96875 C 3.503906 -2.769531 2.769531 -3.769531 2.21875 -4.96875 C 1.675781 -6.164062 1.40625 -7.578125 1.40625 -9.203125 C 1.40625 -11.335938 1.878906 -13.203125 2.828125 -14.796875 C 3.785156 -16.390625 5.046875 -17.628906 6.609375 -18.515625 C 8.179688 -19.398438 9.878906 -19.84375 11.703125 -19.84375 C 13.347656 -19.84375 14.75 -19.519531 15.90625 -18.875 C 17.070312 -18.238281 17.972656 -17.398438 18.609375 -16.359375 C 19.253906 -15.316406 19.585938 -14.171875 19.609375 -12.921875 L 4.3125 -12.921875 C 4.226562 -12.347656 4.1875 -11.742188 4.1875 -11.109375 C 4.1875 -9.335938 4.53125 -7.765625 5.21875 -6.390625 C 5.914062 -5.023438 6.894531 -3.960938 8.15625 -3.203125 C 9.425781 -2.453125 10.910156 -2.078125 12.609375 -2.078125 C 14.117188 -2.078125 15.429688 -2.390625 16.546875 -3.015625 C 17.671875 -3.640625 18.679688 -4.460938 19.578125 -5.484375 L 19.921875 -5.125 C 19.265625 -4.207031 18.476562 -3.328125 17.5625 -2.484375 C 16.65625 -1.640625 15.632812 -0.945312 14.5 -0.40625 C 13.363281 0.125 12.09375 0.390625 10.6875 0.390625 Z M 4.421875 -13.421875 L 16.484375 -13.421875 C 16.347656 -14.304688 16.023438 -15.1875 15.515625 -16.0625 C 15.003906 -16.9375 14.328125 -17.664062 13.484375 -18.25 C 12.640625 -18.84375 11.613281 -19.140625 10.40625 -19.140625 C 8.738281 -19.160156 7.398438 -18.625 6.390625 -17.53125 C 5.390625 -16.4375 4.734375 -15.066406 4.421875 -13.421875 Z M 4.421875 -13.421875 "/></g></g></g><g fill="#f3efeb" fill-opacity="1"><g transform="translate(137.460118, 87.074666)"><g><path d="M 1.484375 0 L 1.484375 -0.515625 C 2.085938 -0.691406 2.5 -1.078125 2.71875 -1.671875 C 2.9375 -2.273438 3.046875 -3.375 3.046875 -4.96875 L 3.046875 -25.71875 C 3.046875 -26.625 2.988281 -27.304688 2.875 -27.765625 C 2.757812 -28.222656 2.585938 -28.554688 2.359375 -28.765625 C 2.140625 -28.972656 1.847656 -29.15625 1.484375 -29.3125 L 1.484375 -29.75 L 5.75 -31.625 L 6.109375 -31.359375 L 6.109375 -4.96875 C 6.109375 -3.375 6.21875 -2.273438 6.4375 -1.671875 C 6.65625 -1.078125 7.066406 -0.691406 7.671875 -0.515625 L 7.671875 0 Z M 1.484375 0 "/></g></g></g><g fill="#f3efeb" fill-opacity="1"><g transform="translate(146.734253, 87.074666)"><g><path d="M 10.6875 0.390625 C 9.613281 0.390625 8.53125 0.195312 7.4375 -0.1875 C 6.34375 -0.582031 5.335938 -1.175781 4.421875 -1.96875 C 3.503906 -2.769531 2.769531 -3.769531 2.21875 -4.96875 C 1.675781 -6.164062 1.40625 -7.578125 1.40625 -9.203125 C 1.40625 -11.335938 1.878906 -13.203125 2.828125 -14.796875 C 3.785156 -16.390625 5.046875 -17.628906 6.609375 -18.515625 C 8.179688 -19.398438 9.878906 -19.84375 11.703125 -19.84375 C 13.347656 -19.84375 14.75 -19.519531 15.90625 -18.875 C 17.070312 -18.238281 17.972656 -17.398438 18.609375 -16.359375 C 19.253906 -15.316406 19.585938 -14.171875 19.609375 -12.921875 L 4.3125 -12.921875 C 4.226562 -12.347656 4.1875 -11.742188 4.1875 -11.109375 C 4.1875 -9.335938 4.53125 -7.765625 5.21875 -6.390625 C 5.914062 -5.023438 6.894531 -3.960938 8.15625 -3.203125 C 9.425781 -2.453125 10.910156 -2.078125 12.609375 -2.078125 C 14.117188 -2.078125 15.429688 -2.390625 16.546875 -3.015625 C 17.671875 -3.640625 18.679688 -4.460938 19.578125 -5.484375 L 19.921875 -5.125 C 19.265625 -4.207031 18.476562 -3.328125 17.5625 -2.484375 C 16.65625 -1.640625 15.632812 -0.945312 14.5 -0.40625 C 13.363281 0.125 12.09375 0.390625 10.6875 0.390625 Z M 4.421875 -13.421875 L 16.484375 -13.421875 C 16.347656 -14.304688 16.023438 -15.1875 15.515625 -16.0625 C 15.003906 -16.9375 14.328125 -17.664062 13.484375 -18.25 C 12.640625 -18.84375 11.613281 -19.140625 10.40625 -19.140625 C 8.738281 -19.160156 7.398438 -18.625 6.390625 -17.53125 C 5.390625 -16.4375 4.734375 -15.066406 4.421875 -13.421875 Z M 4.421875 -13.421875 "/></g></g></g><g fill="#f3efeb" fill-opacity="1"><g transform="translate(167.747794, 87.074666)"><g><path d="M 11.46875 0.359375 C 10.007812 0.359375 8.644531 0.0664062 7.375 -0.515625 C 6.113281 -1.109375 5.128906 -1.785156 4.421875 -2.546875 L 3.125 0 L 2.734375 0 L 2.734375 -25.71875 C 2.734375 -26.625 2.675781 -27.304688 2.5625 -27.765625 C 2.445312 -28.222656 2.273438 -28.554688 2.046875 -28.765625 C 1.828125 -28.972656 1.535156 -29.15625 1.171875 -29.3125 L 1.171875 -29.75 L 5.4375 -31.625 L 5.796875 -31.359375 L 5.796875 -17.1875 C 6.835938 -17.882812 7.976562 -18.5 9.21875 -19.03125 C 10.457031 -19.570312 11.753906 -19.84375 13.109375 -19.84375 C 14.773438 -19.84375 16.25 -19.429688 17.53125 -18.609375 C 18.8125 -17.785156 19.816406 -16.65625 20.546875 -15.21875 C 21.273438 -13.789062 21.640625 -12.148438 21.640625 -10.296875 C 21.640625 -8.492188 21.25 -6.78125 20.46875 -5.15625 C 19.6875 -3.539062 18.535156 -2.222656 17.015625 -1.203125 C 15.503906 -0.191406 13.65625 0.328125 11.46875 0.359375 Z M 5.796875 -6.609375 C 5.796875 -5.671875 6.117188 -4.722656 6.765625 -3.765625 C 7.421875 -2.816406 8.273438 -2.023438 9.328125 -1.390625 C 10.390625 -0.753906 11.519531 -0.4375 12.71875 -0.4375 C 14.757812 -0.4375 16.273438 -1.132812 17.265625 -2.53125 C 18.253906 -3.925781 18.75 -5.757812 18.75 -8.03125 C 18.75 -9.125 18.617188 -10.273438 18.359375 -11.484375 C 18.097656 -12.703125 17.671875 -13.84375 17.078125 -14.90625 C 16.492188 -15.976562 15.722656 -16.851562 14.765625 -17.53125 C 13.816406 -18.207031 12.648438 -18.546875 11.265625 -18.546875 C 10.253906 -18.546875 9.289062 -18.359375 8.375 -17.984375 C 7.457031 -17.609375 6.597656 -17.144531 5.796875 -16.59375 Z M 5.796875 -6.609375 "/></g></g></g><g fill="#f3efeb" fill-opacity="1"><g transform="translate(191.070085, 87.074666)"><g><path d="M 1.25 0 L 1.25 -0.515625 C 1.851562 -0.691406 2.265625 -1.078125 2.484375 -1.671875 C 2.703125 -2.273438 2.8125 -3.375 2.8125 -4.96875 L 2.8125 -13.96875 C 2.8125 -14.882812 2.753906 -15.570312 2.640625 -16.03125 C 2.523438 -16.488281 2.351562 -16.820312 2.125 -17.03125 C 1.90625 -17.238281 1.613281 -17.421875 1.25 -17.578125 L 1.25 -18 L 5.515625 -19.890625 L 5.875 -19.609375 L 5.875 -14.71875 C 6.1875 -15.476562 6.597656 -16.179688 7.109375 -16.828125 C 7.617188 -17.484375 8.160156 -18.019531 8.734375 -18.4375 C 9.328125 -18.875 9.984375 -19.21875 10.703125 -19.46875 C 11.421875 -19.71875 12.25 -19.84375 13.1875 -19.84375 C 13.96875 -19.84375 14.585938 -19.75 15.046875 -19.5625 C 15.503906 -19.382812 15.734375 -19.125 15.734375 -18.78125 C 15.734375 -18.363281 15.53125 -17.890625 15.125 -17.359375 C 14.71875 -16.828125 14.164062 -16.5625 13.46875 -16.5625 C 12.945312 -16.5625 12.285156 -16.65625 11.484375 -16.84375 C 10.691406 -17.039062 9.722656 -17.3125 8.578125 -17.65625 C 8.210938 -17.394531 7.828125 -16.992188 7.421875 -16.453125 C 7.015625 -15.921875 6.671875 -15.328125 6.390625 -14.671875 C 6.117188 -14.023438 5.957031 -13.390625 5.90625 -12.765625 L 5.875 -12.765625 L 5.875 -4.96875 C 5.875 -3.375 5.984375 -2.273438 6.203125 -1.671875 C 6.421875 -1.078125 6.832031 -0.691406 7.4375 -0.515625 L 7.4375 0 Z M 1.25 0 "/></g></g></g><g fill="#f3efeb" fill-opacity="1"><g transform="translate(207.505255, 87.074666)"><g><path d="M 16.40625 0 C 15.613281 0 15.21875 -0.390625 15.21875 -1.171875 L 15.21875 -8.21875 C 14.832031 -6.625 14.222656 -5.175781 13.390625 -3.875 C 12.554688 -2.570312 11.582031 -1.535156 10.46875 -0.765625 C 9.363281 0.00390625 8.15625 0.390625 6.84375 0.390625 C 5.882812 0.390625 4.984375 0.195312 4.140625 -0.1875 C 3.304688 -0.582031 2.632812 -1.15625 2.125 -1.90625 C 1.625 -2.664062 1.375 -3.609375 1.375 -4.734375 C 1.375 -6.085938 1.773438 -7.195312 2.578125 -8.0625 C 3.390625 -8.925781 4.46875 -9.628906 5.8125 -10.171875 C 7.15625 -10.722656 8.597656 -11.207031 10.140625 -11.625 L 15.21875 -13 C 15.113281 -14.90625 14.59375 -16.304688 13.65625 -17.203125 C 12.71875 -18.097656 11.414062 -18.546875 9.75 -18.546875 C 8.570312 -18.546875 7.425781 -18.265625 6.3125 -17.703125 C 5.207031 -17.148438 4.160156 -16.269531 3.171875 -15.0625 L 2.8125 -15.375 C 3.9375 -16.757812 5.207031 -17.847656 6.625 -18.640625 C 8.050781 -19.441406 9.613281 -19.84375 11.3125 -19.84375 C 13.6875 -19.84375 15.429688 -19.222656 16.546875 -17.984375 C 17.671875 -16.742188 18.234375 -15.015625 18.234375 -12.796875 L 18.234375 -4.96875 C 18.234375 -3.375 18.34375 -2.273438 18.5625 -1.671875 C 18.789062 -1.078125 19.207031 -0.691406 19.8125 -0.515625 L 19.8125 0 Z M 4.3125 -5.828125 C 4.3125 -4.554688 4.691406 -3.585938 5.453125 -2.921875 C 6.222656 -2.253906 7.171875 -1.921875 8.296875 -1.921875 C 9.335938 -1.921875 10.28125 -2.210938 11.125 -2.796875 C 11.976562 -3.378906 12.703125 -4.140625 13.296875 -5.078125 C 13.898438 -6.023438 14.367188 -7.046875 14.703125 -8.140625 C 15.046875 -9.234375 15.21875 -10.289062 15.21875 -11.3125 L 15.21875 -12.484375 L 10.296875 -11.15625 C 9.328125 -10.894531 8.378906 -10.546875 7.453125 -10.109375 C 6.523438 -9.679688 5.769531 -9.128906 5.1875 -8.453125 C 4.601562 -7.773438 4.3125 -6.898438 4.3125 -5.828125 Z M 4.3125 -5.828125 "/></g></g></g><g fill="#f3efeb" fill-opacity="1"><g transform="translate(228.244874, 87.074666)"><g><path d="M 7.390625 0.390625 C 6.171875 0.390625 5.207031 -0.03125 4.5 -0.875 C 3.789062 -1.726562 3.4375 -3.171875 3.4375 -5.203125 L 3.4375 -19.015625 L 0.9375 -19.015625 L 0.9375 -19.578125 L 5.953125 -24.390625 L 6.5 -24.390625 L 6.5 -19.578125 L 12.453125 -19.578125 L 12.25 -19.015625 L 6.5 -19.015625 L 6.5 -5.203125 C 6.5 -3.867188 6.753906 -2.921875 7.265625 -2.359375 C 7.773438 -1.804688 8.445312 -1.53125 9.28125 -1.53125 C 9.820312 -1.53125 10.421875 -1.675781 11.078125 -1.96875 C 11.734375 -2.269531 12.382812 -2.800781 13.03125 -3.5625 L 13.390625 -3.203125 C 12.554688 -2.242188 11.632812 -1.40625 10.625 -0.6875 C 9.625 0.03125 8.546875 0.390625 7.390625 0.390625 Z M 7.390625 0.390625 "/></g></g></g><g fill="#f3efeb" fill-opacity="1"><g transform="translate(241.706058, 87.074666)"><g><path d="M 1.25 0 L 1.25 -0.515625 C 1.851562 -0.691406 2.265625 -1.078125 2.484375 -1.671875 C 2.703125 -2.273438 2.8125 -3.375 2.8125 -4.96875 L 2.8125 -13.96875 C 2.8125 -14.882812 2.757812 -15.570312 2.65625 -16.03125 C 2.550781 -16.488281 2.378906 -16.820312 2.140625 -17.03125 C 1.910156 -17.238281 1.613281 -17.421875 1.25 -17.578125 L 1.25 -18 L 5.5625 -19.890625 L 5.875 -19.609375 L 5.875 -4.96875 C 5.875 -3.375 5.988281 -2.273438 6.21875 -1.671875 C 6.457031 -1.078125 6.863281 -0.691406 7.4375 -0.515625 L 7.4375 0 Z M 1.953125 -24.421875 C 1.953125 -25.046875 2.160156 -25.566406 2.578125 -25.984375 C 2.992188 -26.398438 3.503906 -26.609375 4.109375 -26.609375 C 4.734375 -26.609375 5.25 -26.398438 5.65625 -25.984375 C 6.0625 -25.566406 6.265625 -25.046875 6.265625 -24.421875 C 6.265625 -23.847656 6.054688 -23.34375 5.640625 -22.90625 C 5.222656 -22.476562 4.710938 -22.265625 4.109375 -22.265625 C 3.503906 -22.265625 2.992188 -22.476562 2.578125 -22.90625 C 2.160156 -23.34375 1.953125 -23.847656 1.953125 -24.421875 Z M 1.953125 -24.421875 "/></g></g></g><g fill="#f3efeb" fill-opacity="1"><g transform="translate(250.510614, 87.074666)"><g><path d="M 11.65625 0.390625 C 10.40625 0.390625 9.171875 0.195312 7.953125 -0.1875 C 6.742188 -0.582031 5.644531 -1.179688 4.65625 -1.984375 C 3.664062 -2.796875 2.875 -3.828125 2.28125 -5.078125 C 1.695312 -6.335938 1.40625 -7.816406 1.40625 -9.515625 C 1.40625 -11.546875 1.890625 -13.335938 2.859375 -14.890625 C 3.828125 -16.441406 5.09375 -17.65625 6.65625 -18.53125 C 8.21875 -19.40625 9.882812 -19.84375 11.65625 -19.84375 C 12.882812 -19.84375 14.097656 -19.648438 15.296875 -19.265625 C 16.503906 -18.890625 17.601562 -18.296875 18.59375 -17.484375 C 19.582031 -16.679688 20.375 -15.65625 20.96875 -14.40625 C 21.570312 -13.15625 21.875 -11.65625 21.875 -9.90625 C 21.875 -8.226562 21.566406 -6.75 20.953125 -5.46875 C 20.347656 -4.195312 19.535156 -3.125 18.515625 -2.25 C 17.492188 -1.375 16.382812 -0.710938 15.1875 -0.265625 C 13.988281 0.171875 12.8125 0.390625 11.65625 0.390625 Z M 4.421875 -11.75 C 4.421875 -10.488281 4.613281 -9.195312 5 -7.875 C 5.394531 -6.5625 5.957031 -5.34375 6.6875 -4.21875 C 7.414062 -3.101562 8.296875 -2.191406 9.328125 -1.484375 C 10.359375 -0.785156 11.53125 -0.4375 12.84375 -0.4375 C 14.25 -0.4375 15.394531 -0.765625 16.28125 -1.421875 C 17.164062 -2.085938 17.820312 -2.96875 18.25 -4.0625 C 18.6875 -5.164062 18.90625 -6.34375 18.90625 -7.59375 C 18.90625 -8.84375 18.695312 -10.148438 18.28125 -11.515625 C 17.863281 -12.890625 17.269531 -14.164062 16.5 -15.34375 C 15.726562 -16.519531 14.804688 -17.457031 13.734375 -18.15625 C 12.671875 -18.863281 11.5 -19.175781 10.21875 -19.09375 C 8.882812 -19.039062 7.785156 -18.675781 6.921875 -18 C 6.066406 -17.320312 5.4375 -16.4375 5.03125 -15.34375 C 4.625 -14.25 4.421875 -13.050781 4.421875 -11.75 Z M 4.421875 -11.75 "/></g></g></g><g fill="#f3efeb" fill-opacity="1"><g transform="translate(274.06769, 87.074666)"><g><path d="M 1.25 0 L 1.25 -0.515625 C 1.851562 -0.691406 2.265625 -1.078125 2.484375 -1.671875 C 2.703125 -2.273438 2.8125 -3.375 2.8125 -4.96875 L 2.8125 -13.96875 C 2.8125 -14.882812 2.757812 -15.570312 2.65625 -16.03125 C 2.550781 -16.488281 2.378906 -16.820312 2.140625 -17.03125 C 1.910156 -17.238281 1.613281 -17.421875 1.25 -17.578125 L 1.25 -18 L 5.5625 -19.890625 L 5.875 -19.609375 L 5.875 -16.25 C 7.019531 -17.15625 8.3125 -17.976562 9.75 -18.71875 C 11.1875 -19.46875 12.660156 -19.84375 14.171875 -19.84375 C 16.097656 -19.84375 17.609375 -19.28125 18.703125 -18.15625 C 19.804688 -17.039062 20.359375 -15.332031 20.359375 -13.03125 L 20.359375 -4.96875 C 20.359375 -3.375 20.46875 -2.273438 20.6875 -1.671875 C 20.90625 -1.078125 21.316406 -0.691406 21.921875 -0.515625 L 21.921875 0 L 15.734375 0 L 15.734375 -0.515625 C 16.335938 -0.691406 16.75 -1.078125 16.96875 -1.671875 C 17.1875 -2.273438 17.296875 -3.375 17.296875 -4.96875 L 17.296875 -12.25 C 17.296875 -14.28125 16.863281 -15.835938 16 -16.921875 C 15.144531 -18.003906 13.859375 -18.546875 12.140625 -18.546875 C 11.066406 -18.546875 10 -18.265625 8.9375 -17.703125 C 7.882812 -17.148438 6.863281 -16.453125 5.875 -15.609375 L 5.875 -4.96875 C 5.875 -3.375 5.988281 -2.273438 6.21875 -1.671875 C 6.457031 -1.078125 6.863281 -0.691406 7.4375 -0.515625 L 7.4375 0 Z M 1.25 0 "/></g></g></g><g fill="#f3efeb" fill-opacity="1"><g transform="translate(119.185969, 106.521502)"><g><path d="M 9.25 -4.375 C 9.25 -7.515625 7.03125 -9.15625 4.921875 -9.15625 C 3.234375 -9.15625 0.5 -8.09375 0.5 -4.375 C 0.5 -1.515625 2.625 0.234375 4.921875 0.234375 C 7.125 0.234375 9.25 -1.28125 9.25 -4.375 Z M 1.484375 -4.65625 C 1.484375 -6.796875 2.53125 -8.953125 4.8125 -8.953125 C 7.328125 -8.953125 8.265625 -6.46875 8.265625 -4.0625 C 8.265625 -2.015625 7.375 0.015625 4.9375 0.015625 C 2.359375 0.015625 1.484375 -2.4375 1.484375 -4.65625 Z M 1.484375 -4.65625 "/></g></g></g><g fill="#f3efeb" fill-opacity="1"><g transform="translate(134.863626, 106.521502)"><g><path d="M 1.953125 0 C 1.890625 -0.671875 1.828125 -2.578125 1.828125 -4.59375 C 2.140625 -4.609375 2.46875 -4.609375 2.78125 -4.609375 C 3.453125 -4.609375 4.125 -4.578125 4.796875 -4.546875 L 4.890625 -4.96875 C 4.109375 -4.890625 3.296875 -4.859375 2.515625 -4.859375 C 2.28125 -4.859375 2.046875 -4.859375 1.828125 -4.875 C 1.828125 -6.265625 1.84375 -7.640625 1.875 -8.6875 C 2.21875 -8.703125 2.546875 -8.703125 2.859375 -8.703125 C 3.890625 -8.703125 4.796875 -8.640625 5.734375 -8.40625 L 5.6875 -8.953125 C 4.875 -8.921875 4.109375 -8.921875 3.171875 -8.921875 C 2.53125 -8.921875 1.8125 -8.921875 0.953125 -8.921875 C 1.03125 -7.671875 1.0625 -5.75 1.0625 -4 C 1.0625 -2.234375 1.03125 -0.625 0.953125 0 Z M 1.953125 0 "/></g></g></g><g fill="#f3efeb" fill-opacity="1"><g transform="translate(146.672311, 106.521502)"><g/></g></g><g fill="#f3efeb" fill-opacity="1"><g transform="translate(156.477635, 106.521502)"><g><path d="M 0.3125 -8.40625 C 0.703125 -8.609375 1.53125 -8.703125 2.421875 -8.703125 C 2.4375 -6.9375 2.46875 -5.515625 2.46875 -4.125 C 2.46875 -2.8125 2.453125 -1.53125 2.40625 0 L 3.25 0 C 3.1875 -1.484375 3.171875 -2.75 3.171875 -4.03125 C 3.171875 -5.46875 3.1875 -6.90625 3.234375 -8.703125 C 4.140625 -8.703125 5.125 -8.5625 5.515625 -8.40625 L 5.46875 -8.953125 C 5.03125 -8.921875 3.96875 -8.90625 2.90625 -8.90625 C 1.859375 -8.90625 0.796875 -8.921875 0.390625 -8.96875 Z M 0.3125 -8.40625 "/></g></g></g><g fill="#f3efeb" fill-opacity="1"><g transform="translate(168.198668, 106.521502)"><g><path d="M 6.765625 -8.921875 C 6.8125 -7.453125 6.828125 -6.0625 6.828125 -4.875 C 6.328125 -4.859375 5.625 -4.84375 4.875 -4.84375 C 3.609375 -4.84375 2.28125 -4.875 1.71875 -4.90625 C 1.71875 -6.0625 1.75 -7.453125 1.796875 -8.921875 L 0.96875 -8.921875 C 0.984375 -7.109375 1.015625 -5.640625 1.015625 -4.203125 C 1.015625 -2.859375 1 -1.546875 0.953125 0 L 1.796875 0 C 1.734375 -1.421875 1.71875 -2.515625 1.71875 -3.671875 C 1.71875 -3.984375 1.71875 -4.28125 1.71875 -4.609375 C 2.296875 -4.625 3.515625 -4.640625 4.671875 -4.640625 C 5.5 -4.640625 6.3125 -4.625 6.828125 -4.625 C 6.828125 -3.0625 6.8125 -1.796875 6.765625 0 L 7.609375 0 C 7.546875 -1.5625 7.515625 -2.90625 7.515625 -4.25 C 7.515625 -5.6875 7.546875 -7.140625 7.59375 -8.921875 Z M 6.765625 -8.921875 "/></g></g></g><g fill="#f3efeb" fill-opacity="1"><g transform="translate(182.686841, 106.521502)"><g><path d="M 1.8125 -4.59375 C 2.125 -4.609375 2.453125 -4.609375 2.765625 -4.609375 C 3.4375 -4.609375 4.125 -4.578125 4.796875 -4.546875 L 4.890625 -4.96875 C 4.09375 -4.890625 3.296875 -4.859375 2.5 -4.859375 C 2.28125 -4.859375 2.046875 -4.859375 1.8125 -4.875 C 1.8125 -6.25 1.84375 -7.640625 1.875 -8.6875 C 2.296875 -8.703125 2.671875 -8.703125 3.046875 -8.703125 C 4 -8.703125 4.859375 -8.640625 5.734375 -8.4375 L 5.6875 -8.953125 C 5 -8.9375 4.375 -8.921875 0.953125 -8.921875 C 1.03125 -7.671875 1.0625 -5.75 1.0625 -4 C 1.0625 -2.234375 1.03125 -0.625 0.953125 0 C 4.4375 0 5.09375 0.015625 5.78125 0.03125 L 5.921875 -0.46875 C 5.0625 -0.265625 4.171875 -0.21875 3.21875 -0.21875 C 2.78125 -0.21875 2.34375 -0.21875 1.875 -0.234375 C 1.84375 -1.0625 1.8125 -2.328125 1.8125 -3.71875 C 1.8125 -4 1.8125 -4.296875 1.8125 -4.59375 Z M 1.8125 -4.59375 "/></g></g></g><g fill="#f3efeb" fill-opacity="1"><g transform="translate(186.993238, 136.67521)"><g><path d="M 39.5625 -10.5 C 34.570312 -10.5 29.929688 -11.164062 25.640625 -12.5 C 20.710938 -8.425781 17.019531 -5.597656 14.5625 -4.015625 C 9.988281 -1.160156 5.328125 0.265625 0.578125 0.265625 C -4.835938 0.265625 -8.335938 -1.300781 -9.921875 -4.4375 C -10.378906 -5.382812 -10.609375 -6.3125 -10.609375 -7.21875 C -10.609375 -8.132812 -10.445312 -8.875 -10.125 -9.4375 C -9.8125 -10 -9.425781 -10.441406 -8.96875 -10.765625 C -8.019531 -11.429688 -6.910156 -11.765625 -5.640625 -11.765625 C -3.878906 -11.765625 -3 -10.972656 -3 -9.390625 C -3 -8.679688 -3.289062 -8.070312 -3.875 -7.5625 C -4.457031 -7.0625 -5.25 -6.8125 -6.25 -6.8125 C -7.25 -6.8125 -8 -6.984375 -8.5 -7.328125 L -8.5 -6.96875 C -8.5 -3.09375 -5.332031 -1.15625 1 -1.15625 C 5.394531 -1.15625 10.375 -3.09375 15.9375 -6.96875 L 23.796875 -13.140625 C 18.796875 -15.003906 14.800781 -17.640625 11.8125 -21.046875 C 8.925781 -24.285156 7.378906 -27.859375 7.171875 -31.765625 C 6.960938 -35.597656 8.226562 -38.867188 10.96875 -41.578125 C 13.851562 -44.421875 17.757812 -45.84375 22.6875 -45.84375 C 29.539062 -45.84375 35.304688 -42.90625 39.984375 -37.03125 C 41.390625 -35.238281 42.585938 -33.320312 43.578125 -31.28125 C 54.867188 -42.113281 62.253906 -49.078125 65.734375 -52.171875 L 74.390625 -59.671875 C 86.066406 -69.273438 94.664062 -74.078125 100.1875 -74.078125 C 100.820312 -74.078125 101.140625 -73.96875 101.140625 -73.75 C 101.140625 -73.507812 100.847656 -73.28125 100.265625 -73.0625 C 99.679688 -72.851562 99.035156 -72.394531 98.328125 -71.6875 C 97.628906 -70.988281 96.613281 -69.8125 95.28125 -68.15625 L 90.109375 -61.5625 L 54.390625 -14.09375 C 64.203125 -17.007812 71.851562 -22.226562 77.34375 -29.75 C 79.101562 -32.144531 80.28125 -34.148438 80.875 -35.765625 C 81.6875 -37.910156 82.179688 -38.984375 82.359375 -38.984375 C 82.460938 -38.984375 82.628906 -38.832031 82.859375 -38.53125 C 83.085938 -38.238281 83.175781 -37.609375 83.125 -36.640625 C 83.070312 -35.671875 82.816406 -34.523438 82.359375 -33.203125 C 81.898438 -31.890625 81.316406 -30.632812 80.609375 -29.4375 C 79.453125 -27.4375 77.535156 -25.171875 74.859375 -22.640625 C 69.484375 -17.390625 62.097656 -13.800781 52.703125 -11.875 L 43.6875 0.046875 L 40.3125 -0.15625 C 39.1875 -0.226562 38.296875 -0.265625 37.640625 -0.265625 C 36.992188 -0.265625 36.441406 -0.226562 35.984375 -0.15625 L 34.5 0.046875 L 42.3125 -9.609375 C 42.414062 -9.773438 42.519531 -9.9375 42.625 -10.09375 C 42.726562 -10.257812 42.816406 -10.429688 42.890625 -10.609375 C 41.765625 -10.535156 40.65625 -10.5 39.5625 -10.5 Z M 44.3125 -29.65625 C 45.757812 -25.957031 46.484375 -22.789062 46.484375 -20.15625 C 46.484375 -17.519531 46.269531 -15.441406 45.84375 -13.921875 L 65.421875 -37.609375 C 78.328125 -52.628906 86.328125 -61.785156 89.421875 -65.078125 C 92.515625 -68.367188 94.800781 -70.695312 96.28125 -72.0625 L 92.75 -70.59375 C 88 -68.507812 81.210938 -63.65625 72.390625 -56.03125 L 61.296875 -46 Z M 25.0625 -14.1875 C 31.914062 -20.3125 37.679688 -25.640625 42.359375 -30.171875 C 39.441406 -36.816406 34.992188 -41.179688 29.015625 -43.265625 C 27.015625 -43.929688 25.054688 -44.265625 23.140625 -44.265625 C 21.222656 -44.265625 19.515625 -43.921875 18.015625 -43.234375 C 16.523438 -42.546875 15.21875 -41.640625 14.09375 -40.515625 C 11.664062 -38.085938 10.453125 -35.203125 10.453125 -31.859375 C 10.453125 -25.992188 13.191406 -21.160156 18.671875 -17.359375 C 20.503906 -16.085938 22.632812 -15.03125 25.0625 -14.1875 Z M 26.90625 -13.609375 C 30.769531 -12.515625 35.097656 -11.96875 39.890625 -11.96875 C 41.117188 -11.96875 42.347656 -12.023438 43.578125 -12.140625 C 44.390625 -14.210938 44.796875 -16.21875 44.796875 -18.15625 C 44.796875 -21.738281 44.210938 -25.164062 43.046875 -28.4375 C 35.128906 -20.976562 29.75 -16.035156 26.90625 -13.609375 Z M 26.90625 -13.609375 "/></g></g></g><g fill="#f3efeb" fill-opacity="1"><g transform="translate(263.093112, 136.83595)"><g><path d="M 1.25 0 L 1.25 -0.515625 C 1.851562 -0.691406 2.265625 -1.078125 2.484375 -1.671875 C 2.703125 -2.273438 2.8125 -3.375 2.8125 -4.96875 L 2.8125 -13.96875 C 2.8125 -14.882812 2.753906 -15.570312 2.640625 -16.03125 C 2.523438 -16.488281 2.351562 -16.820312 2.125 -17.03125 C 1.90625 -17.238281 1.613281 -17.421875 1.25 -17.578125 L 1.25 -18 L 5.515625 -19.890625 L 5.875 -19.609375 L 5.875 -14.71875 C 6.1875 -15.476562 6.597656 -16.179688 7.109375 -16.828125 C 7.617188 -17.484375 8.160156 -18.019531 8.734375 -18.4375 C 9.328125 -18.875 9.984375 -19.21875 10.703125 -19.46875 C 11.421875 -19.71875 12.25 -19.84375 13.1875 -19.84375 C 13.96875 -19.84375 14.585938 -19.75 15.046875 -19.5625 C 15.503906 -19.382812 15.734375 -19.125 15.734375 -18.78125 C 15.734375 -18.363281 15.53125 -17.890625 15.125 -17.359375 C 14.71875 -16.828125 14.164062 -16.5625 13.46875 -16.5625 C 12.945312 -16.5625 12.285156 -16.65625 11.484375 -16.84375 C 10.691406 -17.039062 9.722656 -17.3125 8.578125 -17.65625 C 8.210938 -17.394531 7.828125 -16.992188 7.421875 -16.453125 C 7.015625 -15.921875 6.671875 -15.328125 6.390625 -14.671875 C 6.117188 -14.023438 5.957031 -13.390625 5.90625 -12.765625 L 5.875 -12.765625 L 5.875 -4.96875 C 5.875 -3.375 5.984375 -2.273438 6.203125 -1.671875 C 6.421875 -1.078125 6.832031 -0.691406 7.4375 -0.515625 L 7.4375 0 Z M 1.25 0 "/></g></g></g><g fill="#f3efeb" fill-opacity="1"><g transform="translate(279.528282, 136.83595)"><g><path d="M 7.390625 0.390625 C 6.171875 0.390625 5.207031 -0.03125 4.5 -0.875 C 3.789062 -1.726562 3.4375 -3.171875 3.4375 -5.203125 L 3.4375 -19.015625 L 0.9375 -19.015625 L 0.9375 -19.578125 L 5.953125 -24.390625 L 6.5 -24.390625 L 6.5 -19.578125 L 12.453125 -19.578125 L 12.25 -19.015625 L 6.5 -19.015625 L 6.5 -5.203125 C 6.5 -3.867188 6.753906 -2.921875 7.265625 -2.359375 C 7.773438 -1.804688 8.445312 -1.53125 9.28125 -1.53125 C 9.820312 -1.53125 10.421875 -1.675781 11.078125 -1.96875 C 11.734375 -2.269531 12.382812 -2.800781 13.03125 -3.5625 L 13.390625 -3.203125 C 12.554688 -2.242188 11.632812 -1.40625 10.625 -0.6875 C 9.625 0.03125 8.546875 0.390625 7.390625 0.390625 Z M 7.390625 0.390625 "/></g></g></g><g fill="#f3efeb" fill-opacity="1"><g transform="translate(292.989466, 136.83595)"><g><path d="M 8.84375 0.359375 C 7.28125 0.359375 5.863281 0.160156 4.59375 -0.234375 C 3.332031 -0.628906 2.375 -1.035156 1.71875 -1.453125 L 1.375 -6.1875 L 1.71875 -6.265625 C 2.550781 -4.410156 3.644531 -2.953125 5 -1.890625 C 6.363281 -0.835938 7.929688 -0.300781 9.703125 -0.28125 C 10.929688 -0.28125 11.941406 -0.609375 12.734375 -1.265625 C 13.535156 -1.929688 13.9375 -2.816406 13.9375 -3.921875 C 13.9375 -4.859375 13.664062 -5.613281 13.125 -6.1875 C 12.59375 -6.757812 11.890625 -7.226562 11.015625 -7.59375 C 10.140625 -7.957031 9.195312 -8.296875 8.1875 -8.609375 C 6.957031 -9.003906 5.859375 -9.414062 4.890625 -9.84375 C 3.921875 -10.269531 3.160156 -10.835938 2.609375 -11.546875 C 2.066406 -12.253906 1.796875 -13.191406 1.796875 -14.359375 C 1.796875 -15.898438 2.414062 -17.195312 3.65625 -18.25 C 4.894531 -19.3125 6.648438 -19.84375 8.921875 -19.84375 C 10.203125 -19.84375 11.382812 -19.726562 12.46875 -19.5 C 13.550781 -19.28125 14.390625 -19.039062 14.984375 -18.78125 L 15.140625 -14.796875 L 14.75 -14.71875 C 14.125 -16.125 13.222656 -17.242188 12.046875 -18.078125 C 10.878906 -18.910156 9.601562 -19.328125 8.21875 -19.328125 C 6.882812 -19.328125 5.816406 -19.023438 5.015625 -18.421875 C 4.222656 -17.828125 3.828125 -17.035156 3.828125 -16.046875 C 3.828125 -15.234375 4.082031 -14.550781 4.59375 -14 C 5.101562 -13.457031 5.78125 -13 6.625 -12.625 C 7.476562 -12.25 8.414062 -11.890625 9.4375 -11.546875 C 10.1875 -11.304688 10.945312 -11.050781 11.71875 -10.78125 C 12.488281 -10.507812 13.191406 -10.171875 13.828125 -9.765625 C 14.472656 -9.359375 15 -8.832031 15.40625 -8.1875 C 15.8125 -7.550781 16.015625 -6.738281 16.015625 -5.75 C 16.015625 -4.65625 15.742188 -3.644531 15.203125 -2.71875 C 14.671875 -1.789062 13.867188 -1.050781 12.796875 -0.5 C 11.722656 0.0390625 10.40625 0.328125 8.84375 0.359375 Z M 8.84375 0.359375 "/></g></g></g><g fill="#f3efeb" fill-opacity="1"><g transform="translate(143.423262, 48.212038)"><g><path d="M 6.53125 -8.984375 L 5.9375 -8.921875 C 5.6875 -8.21875 4.34375 -5.8125 3.609375 -4.625 C 2.8125 -5.984375 1.6875 -8.03125 1.296875 -9.03125 L 0.203125 -8.921875 C 1.09375 -7.65625 2.34375 -5.390625 3 -4 C 3 -3.796875 3.015625 -3.5625 3.015625 -3.3125 C 3.015625 -2.3125 2.953125 -1.03125 2.875 0 L 3.859375 0 C 3.78125 -1.0625 3.71875 -2.328125 3.71875 -3.296875 C 3.71875 -3.625 3.734375 -3.9375 3.734375 -4.1875 C 4.671875 -6 6 -8.390625 6.53125 -8.984375 Z M 6.53125 -8.984375 "/></g></g></g><g fill="#f3efeb" fill-opacity="1"><g transform="translate(155.995728, 48.212038)"><g><path d="M 3.484375 -8.8125 C 2.421875 -5.875 0.46875 -0.90625 -0.09375 0.078125 L 0.515625 0 C 0.71875 -0.78125 1.3125 -2.375 1.984375 -4.078125 C 2.46875 -4.109375 3.203125 -4.125 3.921875 -4.125 C 4.4375 -4.125 4.9375 -4.109375 5.3125 -4.09375 C 5.921875 -2.390625 6.484375 -0.71875 6.75 0.09375 L 7.875 0 C 6.875 -2.109375 4.9375 -6.875 4.234375 -9.078125 Z M 3.59375 -8.25 C 3.953125 -7.6875 4.625 -6.03125 5.21875 -4.34375 C 4.8125 -4.328125 4.3125 -4.3125 3.8125 -4.3125 C 3.171875 -4.3125 2.515625 -4.328125 2.078125 -4.375 C 2.609375 -5.765625 3.171875 -7.1875 3.59375 -8.25 Z M 3.59375 -8.25 "/></g></g></g><g fill="#f3efeb" fill-opacity="1"><g transform="translate(169.857846, 48.212038)"><g><path d="M 4.25 0 C 5.265625 -2.953125 6.96875 -7.65625 7.671875 -8.984375 L 7.015625 -8.921875 C 6.640625 -7.375 4.796875 -2.25 4.15625 -0.78125 C 3.078125 -3.296875 1.609375 -7.34375 1.109375 -9.03125 L 0.09375 -8.921875 C 1.140625 -6.6875 2.984375 -1.921875 3.640625 0.125 Z M 4.25 0 "/></g></g></g><g fill="#f3efeb" fill-opacity="1"><g transform="translate(183.394425, 48.212038)"><g><path d="M 1.359375 0 C 1.28125 -1.015625 1.234375 -3.015625 1.234375 -4.875 C 1.234375 -6.109375 1.25 -7.28125 1.28125 -8.078125 C 3.046875 -5.53125 4.921875 -2.59375 6.578125 0.15625 L 7.453125 -0.078125 C 7.40625 -1.40625 7.390625 -3.03125 7.390625 -4.5625 C 7.390625 -6.515625 7.421875 -8.265625 7.484375 -8.921875 L 7.015625 -8.921875 C 7.078125 -8.171875 7.078125 -6.703125 7.078125 -5.15625 C 7.078125 -3.609375 7.078125 -1.953125 7.046875 -0.828125 C 5.15625 -3.421875 3.421875 -6.265625 1.71875 -9.078125 L 0.90625 -8.78125 C 0.953125 -7.703125 0.96875 -6 0.96875 -4.34375 C 0.96875 -2.484375 0.9375 -0.6875 0.890625 0 Z M 1.359375 0 "/></g></g></g><g fill="#f3efeb" fill-opacity="1"><g transform="translate(197.694779, 48.212038)"><g><path d="M 1.8125 -4.59375 C 2.125 -4.609375 2.453125 -4.609375 2.765625 -4.609375 C 3.4375 -4.609375 4.125 -4.578125 4.796875 -4.546875 L 4.890625 -4.96875 C 4.09375 -4.890625 3.296875 -4.859375 2.5 -4.859375 C 2.28125 -4.859375 2.046875 -4.859375 1.8125 -4.875 C 1.8125 -6.25 1.84375 -7.640625 1.875 -8.6875 C 2.296875 -8.703125 2.671875 -8.703125 3.046875 -8.703125 C 4 -8.703125 4.859375 -8.640625 5.734375 -8.4375 L 5.6875 -8.953125 C 5 -8.9375 4.375 -8.921875 0.953125 -8.921875 C 1.03125 -7.671875 1.0625 -5.75 1.0625 -4 C 1.0625 -2.234375 1.03125 -0.625 0.953125 0 C 4.4375 0 5.09375 0.015625 5.78125 0.03125 L 5.921875 -0.46875 C 5.0625 -0.265625 4.171875 -0.21875 3.21875 -0.21875 C 2.78125 -0.21875 2.34375 -0.21875 1.875 -0.234375 C 1.84375 -1.0625 1.8125 -2.328125 1.8125 -3.71875 C 1.8125 -4 1.8125 -4.296875 1.8125 -4.59375 Z M 1.8125 -4.59375 "/></g></g></g><g fill="#f3efeb" fill-opacity="1"><g transform="translate(209.866571, 48.212038)"><g><path d="M 6.765625 -8.921875 C 6.8125 -7.453125 6.828125 -6.0625 6.828125 -4.875 C 6.328125 -4.859375 5.625 -4.84375 4.875 -4.84375 C 3.609375 -4.84375 2.28125 -4.875 1.71875 -4.90625 C 1.71875 -6.0625 1.75 -7.453125 1.796875 -8.921875 L 0.96875 -8.921875 C 0.984375 -7.109375 1.015625 -5.640625 1.015625 -4.203125 C 1.015625 -2.859375 1 -1.546875 0.953125 0 L 1.796875 0 C 1.734375 -1.421875 1.71875 -2.515625 1.71875 -3.671875 C 1.71875 -3.984375 1.71875 -4.28125 1.71875 -4.609375 C 2.296875 -4.625 3.515625 -4.640625 4.671875 -4.640625 C 5.5 -4.640625 6.3125 -4.625 6.828125 -4.625 C 6.828125 -3.0625 6.8125 -1.796875 6.765625 0 L 7.609375 0 C 7.546875 -1.5625 7.515625 -2.90625 7.515625 -4.25 C 7.515625 -5.6875 7.546875 -7.140625 7.59375 -8.921875 Z M 6.765625 -8.921875 "/></g></g></g><g fill="#f3efeb" fill-opacity="1"><g transform="translate(127.714901, 172.681003)"><g><path d="M 10.078125 -6.21875 C 10.078125 -10.890625 7.90625 -12.859375 5.46875 -12.859375 C 3.3125 -12.859375 0.75 -10.984375 0.75 -6.21875 C 0.75 -2.40625 2.515625 0.3125 5.46875 0.3125 C 7.984375 0.3125 10.078125 -2.28125 10.078125 -6.21875 Z M 2.59375 -6.078125 C 2.59375 -9.125 2.953125 -12.5 5.34375 -12.5 C 7.71875 -12.5 8.234375 -9.03125 8.234375 -5.703125 C 8.234375 -3.359375 7.703125 -0.015625 5.53125 -0.015625 C 3.171875 -0.015625 2.59375 -3.625 2.59375 -6.078125 Z M 2.59375 -6.078125 "/></g></g></g><g fill="#f3efeb" fill-opacity="1"><g transform="translate(142.672062, 172.681003)"><g><path d="M 1.625 -11.203125 C 2.328125 -12.171875 3.21875 -12.53125 3.828125 -12.53125 C 5.78125 -12.53125 6.109375 -11.015625 6.109375 -10.015625 C 6.109375 -7.8125 5.15625 -7.25 2.984375 -7.25 L 3.046875 -6.921875 C 3.140625 -6.921875 3.21875 -6.921875 3.3125 -6.921875 C 5.0625 -6.921875 6.5625 -6.203125 6.5625 -3.46875 C 6.5625 -0.84375 5.15625 -0.015625 3.296875 -0.015625 C 2.375 -0.015625 1.4375 -0.421875 0.515625 -1.390625 L 0.015625 -0.59375 C 0.765625 -0.0625 2.0625 0.3125 3.375 0.3125 C 5.765625 0.3125 8.390625 -0.96875 8.390625 -3.671875 C 8.390625 -5.9375 6.453125 -6.921875 5.390625 -7.125 C 6.578125 -7.40625 7.84375 -8.40625 7.84375 -10 C 7.84375 -11.734375 6.25 -12.859375 4.109375 -12.859375 C 3.1875 -12.859375 1.875 -12.453125 1.1875 -11.921875 Z M 1.625 -11.203125 "/></g></g></g><g fill="#f3efeb" fill-opacity="1"><g transform="translate(155.755198, 172.681003)"><g><path d="M 0.828125 -0.59375 C 0.828125 -0.125 1.1875 0.25 1.65625 0.25 C 2.140625 0.25 2.515625 -0.125 2.515625 -0.59375 C 2.515625 -1.0625 2.140625 -1.453125 1.65625 -1.453125 C 1.1875 -1.453125 0.828125 -1.0625 0.828125 -0.59375 Z M 0.828125 -0.59375 "/></g></g></g><g fill="#f3efeb" fill-opacity="1"><g transform="translate(164.109488, 172.681003)"><g><path d="M 10.078125 -6.21875 C 10.078125 -10.890625 7.90625 -12.859375 5.46875 -12.859375 C 3.3125 -12.859375 0.75 -10.984375 0.75 -6.21875 C 0.75 -2.40625 2.515625 0.3125 5.46875 0.3125 C 7.984375 0.3125 10.078125 -2.28125 10.078125 -6.21875 Z M 2.59375 -6.078125 C 2.59375 -9.125 2.953125 -12.5 5.34375 -12.5 C 7.71875 -12.5 8.234375 -9.03125 8.234375 -5.703125 C 8.234375 -3.359375 7.703125 -0.015625 5.53125 -0.015625 C 3.171875 -0.015625 2.59375 -3.625 2.59375 -6.078125 Z M 2.59375 -6.078125 "/></g></g></g><g fill="#f3efeb" fill-opacity="1"><g transform="translate(179.066651, 172.681003)"><g><path d="M 2.203125 -12.859375 C 2 -12.203125 1.34375 -11.875 0.625 -11.875 C 0.53125 -11.875 0.4375 -11.875 0.328125 -11.890625 L 0.453125 -11.4375 C 0.859375 -11.4375 1.46875 -11.59375 1.640625 -11.703125 C 1.71875 -9.9375 1.734375 -8.15625 1.734375 -6.359375 C 1.734375 -4.328125 1.703125 -2.21875 1.625 0 L 3.34375 0 C 3.234375 -2.015625 3.171875 -4.03125 3.171875 -6.0625 C 3.171875 -8.3125 3.234375 -10.578125 3.390625 -12.859375 Z M 2.203125 -12.859375 "/></g></g></g><g fill="#f3efeb" fill-opacity="1"><g transform="translate(188.226599, 172.681003)"><g><path d="M 0.828125 -0.59375 C 0.828125 -0.125 1.1875 0.25 1.65625 0.25 C 2.140625 0.25 2.515625 -0.125 2.515625 -0.59375 C 2.515625 -1.0625 2.140625 -1.453125 1.65625 -1.453125 C 1.1875 -1.453125 0.828125 -1.0625 0.828125 -0.59375 Z M 0.828125 -0.59375 "/></g></g></g><g fill="#f3efeb" fill-opacity="1"><g transform="translate(196.580893, 172.681003)"><g><path d="M 1.6875 -11.109375 C 2.34375 -12.203125 3.328125 -12.578125 4.03125 -12.578125 C 5.375 -12.578125 6.21875 -11.5 6.21875 -8.96875 C 6.21875 -5.109375 3.5625 -2.75 0.125 -0.671875 L 0.125 0 L 8.125 0 L 8.515625 -1.3125 C 6.8125 -0.828125 4.015625 -0.8125 1.25 -0.8125 C 3.34375 -2.234375 8.15625 -5.828125 8.15625 -9.375 C 8.15625 -11.5625 6.5625 -12.875 4.140625 -12.875 C 3 -12.875 1.828125 -12.34375 1.171875 -11.828125 Z M 1.6875 -11.109375 "/></g></g></g><g fill="#f3efeb" fill-opacity="1"><g transform="translate(209.751607, 172.681003)"><g><path d="M 10.078125 -6.21875 C 10.078125 -10.890625 7.90625 -12.859375 5.46875 -12.859375 C 3.3125 -12.859375 0.75 -10.984375 0.75 -6.21875 C 0.75 -2.40625 2.515625 0.3125 5.46875 0.3125 C 7.984375 0.3125 10.078125 -2.28125 10.078125 -6.21875 Z M 2.59375 -6.078125 C 2.59375 -9.125 2.953125 -12.5 5.34375 -12.5 C 7.71875 -12.5 8.234375 -9.03125 8.234375 -5.703125 C 8.234375 -3.359375 7.703125 -0.015625 5.53125 -0.015625 C 3.171875 -0.015625 2.59375 -3.625 2.59375 -6.078125 Z M 2.59375 -6.078125 "/></g></g></g><g fill="#f3efeb" fill-opacity="1"><g transform="translate(224.70877, 172.681003)"><g><path d="M 1.6875 -11.109375 C 2.34375 -12.203125 3.328125 -12.578125 4.03125 -12.578125 C 5.375 -12.578125 6.21875 -11.5 6.21875 -8.96875 C 6.21875 -5.109375 3.5625 -2.75 0.125 -0.671875 L 0.125 0 L 8.125 0 L 8.515625 -1.3125 C 6.8125 -0.828125 4.015625 -0.8125 1.25 -0.8125 C 3.34375 -2.234375 8.15625 -5.828125 8.15625 -9.375 C 8.15625 -11.5625 6.5625 -12.875 4.140625 -12.875 C 3 -12.875 1.828125 -12.34375 1.171875 -11.828125 Z M 1.6875 -11.109375 "/></g></g></g><g fill="#f3efeb" fill-opacity="1"><g transform="translate(237.879484, 172.681003)"><g><path d="M 0.40625 -0.546875 C 1.1875 0.0625 2.4375 0.3125 3.5625 0.3125 C 7.03125 0.3125 8.78125 -2.265625 8.78125 -4.59375 C 8.78125 -7.390625 6.8125 -8.828125 4.625 -8.828125 C 3.578125 -8.828125 2.546875 -8.515625 1.859375 -7.96875 C 2.03125 -9.40625 2.125 -10.28125 2.296875 -11.484375 C 4.40625 -11.484375 5.609375 -11.484375 6.984375 -11.296875 L 7.53125 -12.859375 C 6.328125 -12.5625 5.609375 -12.5625 1.84375 -12.5625 C 1.578125 -10.484375 1.359375 -8.53125 1.109375 -6.578125 L 1.71875 -6.359375 C 2.015625 -7.46875 3.140625 -8.4375 4.453125 -8.4375 C 6.09375 -8.4375 7 -6.890625 7 -4.328125 C 7 -1.21875 5.40625 -0.015625 3.4375 -0.015625 C 2.609375 -0.015625 1.5625 -0.5625 0.953125 -1.328125 Z M 0.40625 -0.546875 "/></g></g></g></svg>