<svg width="544" height="87" viewBox="0 0 544 87" fill="none" xmlns="http://www.w3.org/2000/svg">
<path d="M74.0135 87H48.8644L41.165 71.7294L25.4098 40.5055L23.3068 36.3227V87H0V0.458008H24.7842L25.0796 1.0716L25.4098 1.7284L35.9162 22.5126L41.165 32.9091L50.7067 51.818V0.458008H73.9353V86.8963L74.0135 87Z" fill="#202A34"/>
<path d="M292.405 16.0397H269.089V86.9049H245.53V16.0397H222.215V0H292.405V16.0397Z" fill="#202A34"/>
<path d="M152.555 86.5937H129.248V51.4463H102.795V86.5937H79.4883V0.311035H102.795V35.4671H129.248V0.311035H152.555V86.5937Z" fill="#202A34"/>
<path d="M216.461 9.37674L204.226 0.319824H158.611V86.6025H204.226L216.461 77.5975V51.0144L209.092 43.3748L216.461 35.908V9.37674ZM197.308 70.6751H177.703V51.4465H197.308V70.6751ZM197.308 35.4672H177.703V16.2472H197.308V35.4672Z" fill="#202A34"/>
<path d="M316.789 51.3168V70.5195H336.359V64.5046H355.469V86.3951H297.758V51.3168L313.131 35.3721H336.359V16.1953H316.789V21.8818H297.758V9.34212L309.854 0.30249H343.259L355.469 9.34212V35.8129L348.108 43.2624L340.018 51.3168H316.789Z" fill="#F69220"/>
<path d="M442.43 51.3168V70.5195H462V64.5046H481.109V86.3951H423.398V51.3168L438.763 35.3721H462V16.1953H442.43V21.8818H423.398V9.34212L435.495 0.30249H468.9L481.109 9.34212V35.8129L473.749 43.2624L465.65 51.3168H442.43Z" fill="#F69220"/>
<path d="M544 16.2126V0.30249H486.289V43.3661L501.662 51.3341H524.89V70.5109H505.32V64.8158H486.289V77.3554L498.386 86.3951H531.79L544 77.3554V43.3661L528.549 35.3894H505.32V16.1867H524.89L544 16.2126Z" fill="#F69220"/>
<path d="M406.088 0.328466H372.684L360.587 9.3681V77.416L372.684 86.3951H406.088L418.298 77.416V9.35946L406.088 0.319824V0.328466ZM399.188 70.5196H379.618V16.2126H399.188V70.5196Z" fill="#F69220"/>
</svg>
