<svg xmlns="http://www.w3.org/2000/svg" xmlns:xlink="http://www.w3.org/1999/xlink" width="500" zoomAndPan="magnify" viewBox="0 0 375 187.499995" height="250" preserveAspectRatio="xMidYMid meet" version="1.0"><defs><clipPath id="036a8f1ad0"><path d="M 129.191406 43 L 200 43 L 200 112 L 129.191406 112 Z M 129.191406 43 " clip-rule="nonzero"/></clipPath><clipPath id="952f745215"><path d="M 207 32.441406 L 245.882812 32.441406 L 245.882812 78 L 207 78 Z M 207 32.441406 " clip-rule="nonzero"/></clipPath></defs><g clip-path="url(#036a8f1ad0)"><path fill="#ffffff" d="M 199.855469 83.785156 C 199.46875 79.078125 198.34375 74.5 196.5 70.136719 C 194.25 64.820312 191.03125 60.046875 186.929688 55.945312 C 182.832031 51.84375 178.054688 48.625 172.738281 46.375 C 168.492188 44.582031 164.042969 43.46875 159.460938 43.050781 L 159.460938 84.535156 C 158.160156 84.058594 156.683594 83.769531 155.054688 83.691406 C 151.09375 83.5 146.570312 84.570312 142.316406 86.710938 C 138.0625 88.847656 134.503906 91.839844 132.296875 95.132812 C 129.742188 98.945312 129.210938 102.789062 130.800781 105.953125 C 132.394531 109.117188 135.792969 110.984375 140.378906 111.207031 C 140.683594 111.222656 140.988281 111.230469 141.300781 111.230469 C 145.03125 111.230469 149.1875 110.164062 153.117188 108.1875 C 157.371094 106.050781 160.929688 103.058594 163.136719 99.765625 C 164.742188 97.371094 165.546875 94.96875 165.53125 92.722656 L 165.53125 59.488281 C 165.53125 59.488281 193.507812 57.5 199.855469 83.785156 " fill-opacity="1" fill-rule="nonzero"/></g><path fill="#ffffff" d="M 218.355469 113.914062 C 216.113281 110.648438 213.394531 107.78125 210.234375 105.375 C 206.382812 102.4375 202.054688 100.300781 197.363281 99.023438 C 192.675781 97.742188 187.859375 97.386719 183.050781 97.960938 C 179.214844 98.421875 175.511719 99.460938 172.003906 101.0625 L 173.191406 103.136719 L 174.542969 105.507812 L 189.261719 131.261719 C 188.117188 131.457031 186.917969 131.863281 185.703125 132.480469 C 182.738281 133.988281 179.890625 136.652344 177.683594 139.976562 C 175.476562 143.304688 174.132812 146.964844 173.894531 150.277344 C 173.621094 154.117188 174.832031 157.136719 177.308594 158.777344 C 179.78125 160.421875 183.035156 160.363281 186.464844 158.617188 C 186.691406 158.503906 186.917969 158.378906 187.144531 158.25 C 189.859375 156.699219 192.445312 154.195312 194.480469 151.121094 C 196.6875 147.796875 198.035156 144.136719 198.273438 140.824219 C 198.445312 138.410156 198.03125 136.324219 197.085938 134.699219 L 183.261719 110.503906 C 183.261719 110.503906 202.800781 97.417969 218.355469 113.914062 " fill-opacity="1" fill-rule="nonzero"/><g clip-path="url(#952f745215)"><path fill="#ffffff" d="M 241.300781 42.386719 C 239.003906 39.664062 236.238281 37.441406 233.074219 35.773438 C 229.910156 34.109375 226.511719 33.085938 222.96875 32.730469 C 220.136719 32.449219 217.3125 32.605469 214.542969 33.195312 L 215.0625 34.875 L 215.65625 36.789062 L 222.117188 57.628906 C 221.261719 57.585938 220.339844 57.683594 219.367188 57.9375 C 217 58.546875 214.53125 60.003906 212.414062 62.039062 C 210.300781 64.078125 208.75 66.488281 208.050781 68.828125 C 207.242188 71.542969 207.632812 73.902344 209.148438 75.476562 C 210.660156 77.050781 213.003906 77.527344 215.746094 76.824219 C 215.929688 76.773438 216.109375 76.726562 216.292969 76.667969 C 218.488281 75.988281 220.746094 74.601562 222.699219 72.71875 C 224.8125 70.683594 226.363281 68.269531 227.058594 65.929688 C 227.570312 64.226562 227.605469 62.660156 227.183594 61.34375 L 227.1875 61.34375 L 221.117188 41.769531 C 221.117188 41.769531 237.234375 35.488281 245.769531 49.8125 C 244.683594 47.109375 243.183594 44.617188 241.300781 42.386719 " fill-opacity="1" fill-rule="nonzero"/></g></svg>