<svg xmlns="http://www.w3.org/2000/svg" xmlns:xlink="http://www.w3.org/1999/xlink" width="500" zoomAndPan="magnify" viewBox="0 0 375 374.999991" height="500" preserveAspectRatio="xMidYMid meet" version="1.0"><defs><clipPath id="38090bc08b"><path d="M 166 67 L 320.667969 67 L 320.667969 283 L 166 283 Z M 166 67 " clip-rule="nonzero"/></clipPath><clipPath id="a1cab47979"><path d="M 123 37.5 L 189 37.5 L 189 143 L 123 143 Z M 123 37.5 " clip-rule="nonzero"/></clipPath></defs><g clip-path="url(#38090bc08b)"><path fill="#ffffff" d="M 220.171875 67.066406 L 204.820312 196.683594 C 203.179688 196.414062 201.496094 196.296875 199.742188 196.34375 C 196.304688 196.421875 192.792969 197.101562 189.316406 198.359375 C 174.539062 203.691406 164.894531 217.667969 167.351562 230.171875 C 169.21875 239.71875 177.898438 246.132812 188.941406 246.132812 C 189.175781 246.132812 189.410156 246.132812 189.632812 246.125 C 193.078125 246.046875 196.59375 245.367188 200.078125 244.105469 C 211.988281 239.804688 220.957031 229.664062 222.417969 218.773438 L 234.527344 116.394531 L 296.546875 149.375 L 286.710938 232.5625 C 285.113281 232.3125 283.417969 232.203125 281.785156 232.246094 C 278.347656 232.328125 274.839844 233.003906 271.363281 234.257812 C 256.597656 239.589844 246.949219 253.566406 249.398438 266.085938 C 251.273438 275.632812 259.945312 282.042969 270.988281 282.042969 C 271.21875 282.042969 271.449219 282.039062 271.683594 282.035156 C 275.128906 281.953125 278.640625 281.273438 282.128906 280.011719 C 294.015625 275.71875 302.925781 265.625 304.300781 254.847656 L 320.488281 118.089844 L 220.171875 67.066406 " fill-opacity="1" fill-rule="nonzero"/></g><path fill="#ffffff" d="M 132.703125 172.523438 C 130.601562 170.867188 128.332031 169.277344 125.742188 167.644531 C 124.574219 166.914062 123.390625 166.214844 122.246094 165.570312 C 120.894531 164.808594 119.675781 164.175781 118.542969 163.601562 C 117.117188 162.890625 115.714844 162.210938 114.335938 161.546875 C 111.429688 160.144531 108.691406 158.828125 106.320312 157.386719 C 103.1875 155.515625 100.894531 153.464844 99.503906 151.277344 C 99.105469 150.65625 98.269531 148.925781 97.59375 147.535156 L 96.492188 145.292969 C 95.476562 143.207031 94.316406 140.847656 91.996094 137.757812 C 89.679688 134.6875 86.1875 132.925781 82.425781 132.925781 C 80.945312 132.925781 79.476562 133.199219 78.097656 133.730469 C 77.5625 133.929688 77.03125 134.175781 76.5 134.460938 C 71.054688 137.425781 68.082031 143.910156 69.285156 150.234375 L 97.199219 273.015625 C 94.335938 273.339844 91.441406 274.0625 88.5625 275.164062 C 84.308594 276.796875 80.226562 279.195312 76.4375 282.3125 C 60.335938 295.539062 54.390625 317.175781 62.910156 331.574219 C 67.417969 339.171875 75.371094 343.535156 84.722656 343.535156 C 88.742188 343.535156 92.859375 342.738281 96.949219 341.171875 C 101.214844 339.539062 105.300781 337.128906 109.105469 334.007812 C 122.085938 323.320312 128.785156 306.765625 125.757812 292.746094 L 101.140625 184.476562 C 102.4375 184.945312 103.710938 185.382812 104.96875 185.816406 C 106.292969 186.277344 107.59375 186.722656 108.753906 187.144531 L 111.789062 188.324219 C 112.957031 188.824219 113.851562 189.21875 114.636719 189.601562 C 116.492188 190.484375 118.300781 191.457031 120.039062 192.515625 C 127.574219 197.066406 132.929688 202.917969 135.984375 209.976562 C 139.296875 217.371094 140.113281 226.949219 138.285156 236.996094 C 137.613281 240.835938 139.804688 244.5625 143.390625 245.671875 C 144.933594 246.140625 146.585938 246.09375 148.15625 245.5 C 150.421875 244.628906 152.117188 242.757812 152.816406 240.394531 C 156.8125 227.128906 157.066406 213.546875 153.535156 202.199219 C 150.066406 190.851562 142.871094 180.597656 132.703125 172.523438 " fill-opacity="1" fill-rule="nonzero"/><g clip-path="url(#a1cab47979)"><path fill="#ffffff" d="M 183.761719 65.953125 C 183.011719 64.792969 182.171875 63.640625 181.183594 62.421875 C 180.734375 61.871094 180.277344 61.328125 179.824219 60.824219 C 179.292969 60.230469 178.808594 59.71875 178.347656 59.25 C 177.773438 58.667969 177.199219 58.105469 176.644531 57.554688 C 175.460938 56.386719 174.34375 55.285156 173.429688 54.191406 C 172.21875 52.757812 171.441406 51.378906 171.128906 50.082031 C 171.035156 49.714844 170.917969 48.730469 170.820312 47.941406 L 170.652344 46.664062 C 170.503906 45.484375 170.332031 44.140625 169.722656 42.25 C 169.105469 40.363281 167.695312 38.929688 165.859375 38.300781 C 165.136719 38.058594 164.382812 37.949219 163.617188 37.972656 C 163.324219 37.980469 163.027344 38.011719 162.722656 38.066406 C 159.574219 38.601562 157.046875 41.269531 156.582031 44.546875 L 149.753906 108.988281 C 148.304688 108.671875 146.777344 108.542969 145.191406 108.601562 C 142.847656 108.6875 140.464844 109.179688 138.101562 110.070312 C 128.050781 113.832031 121.558594 123.378906 123.316406 131.804688 C 124.246094 136.261719 127.390625 139.703125 131.953125 141.257812 C 133.902344 141.925781 136.042969 142.226562 138.296875 142.144531 C 140.644531 142.058594 143.039062 141.5625 145.410156 140.675781 C 153.511719 137.628906 159.523438 130.6875 160.382812 123.347656 L 166.402344 66.527344 C 166.957031 66.964844 167.5 67.390625 168.042969 67.8125 C 168.617188 68.257812 169.171875 68.6875 169.664062 69.089844 L 170.945312 70.171875 C 171.433594 70.605469 171.800781 70.945312 172.121094 71.261719 C 172.882812 72 173.601562 72.773438 174.269531 73.578125 C 177.179688 77.050781 178.816406 80.789062 179.132812 84.742188 C 179.515625 88.886719 178.320312 93.691406 175.753906 98.28125 C 174.792969 100.035156 175.238281 102.21875 176.796875 103.351562 C 177.472656 103.839844 178.289062 104.09375 179.152344 104.066406 C 180.398438 104.015625 181.539062 103.386719 182.269531 102.351562 C 186.421875 96.554688 188.800781 89.984375 188.972656 83.871094 C 189.167969 77.765625 187.371094 71.578125 183.761719 65.953125 " fill-opacity="1" fill-rule="nonzero"/></g></svg>